<?xml version="1.0" encoding="utf-8"?>
<!-- Generator: Adobe Illustrator 16.0.5, SVG Export Plug-In . SVG Version: 6.00 Build 0)  -->
<!DOCTYPE svg PUBLIC "-//W3C//DTD SVG 1.1//EN" "http://www.w3.org/Graphics/SVG/1.1/DTD/svg11.dtd">
<svg version="1.1" xmlns="http://www.w3.org/2000/svg" xmlns:xlink="http://www.w3.org/1999/xlink" x="0px" y="0px"
	 width="687.82px" height="70.886px" viewBox="0 0 687.82 70.886" enable-background="new 0 0 687.82 70.886" xml:space="preserve">
<g id="Layer_1">
	<g>
		<path d="M309.435,51.758c-0.172,9.799-7.22,19.128-20.927,19.128c-11.562,0-21.232-8.513-21.762-19.45
			c2.018,0.004,10.723,0,12.279,0c0.266,5.426,4.075,8.689,10.703,8.395c5.916-0.268,8.67-5.327,8.77-9.193
			c0.115-4.668-0.715-8.855-13.807-13.428c-11.186-3.906-16.572-8.654-16.572-19.506c0-10.893,10.154-17.556,18.964-17.699
			c14.632-0.238,21.404,9.188,21.192,17.062h-12.031c-0.363-4.052-4.37-6.911-8.641-6.911c-4.365,0-8.653,2.907-8.658,8.6
			c-0.005,6.173,3.74,8.396,12.743,11.609C307.414,35.444,309.65,42.836,309.435,51.758z"/>
		<path d="M177.564,51.758c-0.168,9.799-7.217,19.128-20.924,19.128c-11.562,0-21.237-8.513-21.763-19.45
			c2.019,0.004,10.722,0,12.28,0c0.266,5.426,4.074,8.689,10.703,8.395c5.916-0.268,8.668-5.327,8.766-9.193
			c0.119-4.668-0.712-8.855-13.803-13.428c-11.188-3.906-16.574-8.654-16.574-19.506c0-10.894,10.156-17.556,18.967-17.699
			c14.629-0.238,21.402,9.188,21.193,17.062h-12.035c-0.364-4.052-4.367-6.911-8.641-6.911c-4.363,0-8.652,2.907-8.656,8.6
			c-0.006,6.173,3.742,8.396,12.74,11.607C175.547,35.444,177.781,42.836,177.564,51.758z"/>
		<g>
			<path d="M681.15,7.145l0.622,0.007c0.729,0.005,1.306-0.242,1.306-0.826c0.008-0.521-0.363-0.866-1.201-0.874
				c-0.334-0.003-0.572,0.039-0.721,0.072L681.15,7.145z M681.08,10.326l-1.305-0.009l0.043-5.638
				c0.523-0.104,1.25-0.203,2.176-0.195c1.082,0.009,1.547,0.192,1.975,0.467c0.303,0.25,0.551,0.705,0.543,1.211
				c0,0.667-0.5,1.143-1.186,1.347v0.065c0.545,0.178,0.859,0.635,1.021,1.394c0.172,0.868,0.273,1.212,0.405,1.382l-1.413-0.008
				c-0.178-0.214-0.285-0.69-0.439-1.358c-0.102-0.617-0.447-0.894-1.17-0.903l-0.626-0.002L681.08,10.326z M682.008,2.868
				c-2.492-0.023-4.37,1.995-4.392,4.488c-0.019,2.531,1.828,4.548,4.392,4.572c2.492,0.048,4.342-1.973,4.36-4.503
				c0.019-2.498-1.8-4.539-4.325-4.558H682.008z M682.094,1.714c3.243,0.03,5.749,2.569,5.727,5.724
				c-0.023,3.217-2.571,5.686-5.857,5.662c-3.246-0.03-5.819-2.531-5.797-5.747c0.031-3.158,2.643-5.661,5.889-5.639H682.094z"/>
		</g>
		<polygon points="484.301,1.93 473.836,1.93 473.836,68.594 510.418,68.594 510.418,59.022 484.785,59.022 484.301,58.521 		"/>
		<polygon points="421.175,1.93 410.711,1.93 410.711,68.594 447.289,68.594 447.289,59.022 421.66,59.008 421.175,58.521 		"/>
		<polygon points="217.561,12.007 217.077,11.521 199.283,11.539 199.283,1.93 246.293,1.93 246.293,11.539 228.522,11.521 
			228.035,12.007 228.027,68.594 217.561,68.582 		"/>
		<polygon points="575.99,1.934 539.451,1.934 539.451,68.59 575.99,68.59 575.99,59.02 550.375,59.02 549.896,58.539 
			549.892,39.811 550.375,39.334 571.699,39.334 571.699,29.621 550.375,29.621 549.892,29.145 549.892,12.013 550.375,11.534 
			575.99,11.534 		"/>
		<polygon points="376.453,1.934 339.914,1.934 339.914,68.59 376.453,68.59 376.453,59.02 350.838,59.02 350.355,58.539 
			350.355,39.811 350.834,39.334 372.164,39.334 372.164,29.621 350.834,29.621 350.355,29.143 350.355,12.013 350.834,11.534 
			376.453,11.534 		"/>
		<polygon points="107.902,1.953 71.365,1.953 71.365,68.607 107.902,68.607 107.902,59.037 82.289,59.037 81.809,58.561 
			81.807,39.832 82.289,39.352 103.617,39.352 103.617,29.641 82.289,29.641 81.807,29.162 81.807,12.036 82.289,11.555 
			107.902,11.555 		"/>
		<path d="M625.709,1.947c-4.053,0-14.164,0-16.096,0.376v66.245h10.479c0-0.926-0.021-28.275-0.021-28.275l0.483-0.461h5.092h0.012
			c4.741,0,6.445,3.113,8.552,7.731c2.865,6.302,4.164,11.886,6.861,21.011l11.399-0.006c-1.072-3.488-4.936-15.178-8.309-24.208
			c-1.99-5.333-4.539-8.263-7.58-9.009v-0.301c5.498-2.164,11.507-6.002,11.772-15.8c0.142-4.979-0.925-9.408-4.101-12.474
			C640.303,3.033,634.037,1.947,625.709,1.947 M620.561,29.639l-0.489-0.488V12.032l0.483-0.487l6.693-0.011
			c7.751,0,10.451,4.928,10.451,8.842c0,7.77-5.115,9.358-10.42,9.263H620.561z"/>
		<path d="M16.856,1.945c-0.216,0-0.429,0.004-0.655,0.004C12.211,1.983,1.898,1.949,0,2.294v27.497v7.588v31.092
			c2.076,0.373,12.361,0.463,16.713,0.463c10.684,0,14.623-1.197,18.867-4.975c3.412-3.082,5.1-7.754,5.1-13.52
			c0-9.886-4.599-14.379-10.502-16.571v-0.302c4.484-2.363,7.916-6.457,7.916-14.839c0-5.292-1.76-9.115-4.902-11.93
			C29.273,3.289,23.974,1.945,16.856,1.945 M10.944,29.623l-0.483-0.486l-0.009-17.114l0.483-0.485c0.664,0,1.076,0.004,1.689,0.004
			c1.426,0,2.847,0.01,4.814,0.01c7.855,0,10.293,3.935,10.293,8.555c0,5.693-2.287,9.535-9.812,9.535
			C17.744,29.641,10.944,29.623,10.944,29.623z M13.775,59.029c-1.508,0-2.402,0.002-2.84,0l-0.483-0.498V39.828l0.483-0.486
			l6.477-0.02c7.34,0,12.357,3.563,12.357,10.295c-0.004,5.295-2.422,9.412-11.773,9.445C16.375,59.062,14.963,59.029,13.775,59.029
			"/>
	</g>
</g>
<g id="Layer_2" display="none">
</g>
</svg>
