<?xml version="1.0" encoding="utf-8"?>
<!-- Generator: Adobe Illustrator 18.1.1, SVG Export Plug-In . SVG Version: 6.00 Build 0)  -->
<svg version="1.1" id="Layer_1" xmlns="http://www.w3.org/2000/svg" xmlns:xlink="http://www.w3.org/1999/xlink" x="0px" y="0px"
	 viewBox="0 0 511.7 85.3" enable-background="new 0 0 511.7 85.3" xml:space="preserve">
<path fill="#FFFFFF" d="M46.9,50c-0.9,0.1-1.2,0.3-1.2,1v15.7c-5.6,2.6-12.9,3.5-18.9,3.5C6.9,70.3,0,58.5,0,42.8
	c0-15.6,9-27.2,27.4-27.2c5.3,0,12.1,1.3,16.5,4.2v13.8L35.8,33l-1.1-6.6c-0.2-1-0.5-1.3-1.2-1.5c-1.8-0.5-4.5-0.9-6.7-0.9
	c-9.4,0-15,7.2-15,18.6c0,12.1,5.1,19.2,15.6,19.2c2,0,4.4-0.2,6.1-0.5c0.8-0.1,1.2-0.4,1.2-1.3v-9.6h-8.1l1-6.6h22.4v5.8L46.9,50z"
	/>
<path fill="#FFFFFF" d="M59.4,69.4v-5.7l5.3-0.5c1-0.1,1.2-0.4,1.2-1.5V24.3c0-1.1-0.1-1.4-1.2-1.5l-5.3-0.5v-5.8H84v5.8L78.3,23
	c-1.1,0.1-1.2,0.3-1.2,1.4v37.3c0,1.2,0.1,1.3,1.2,1.5l5.6,0.6v5.7H59.4z"/>
<path fill="#FFFFFF" d="M164.2,69.4v-5.7l4.6-0.5c1-0.1,1.2-0.4,1.2-1.5V24.3c0-1.1-0.1-1.4-1.2-1.5l-4.6-0.5v-5.8H203v14.8l-8-0.4
	l-1-5.6c-0.1-0.7-0.4-0.9-1.2-0.9h-11.5v14.4h17.1v8.1h-17.1v14.7h13.1c0.8,0,1-0.1,1.2-0.8l1.2-6.4h8v15H164.2z"/>
<rect x="218.8" y="43.5" fill="#FFFFFF" width="19.8" height="9.3"/>
<path fill="#FFFFFF" d="M280.5,69.4v-5.7l6-0.7l-2.6-7.6h-18.1l-2.6,7.6l5.8,0.7v5.7h-20.4v-5.7l3.2-0.8c0.9-0.2,1.5-0.5,1.8-1.4
	l16-45h12.9l15.9,45.1c0.3,0.9,0.9,1,1.8,1.2l3.4,0.8v5.7H280.5z M275.2,27.7h-0.4L268,47.6h13.7L275.2,27.7z"/>
<rect x="313.4" y="43.5" fill="#FFFFFF" width="19.8" height="9.3"/>
<path fill="#FFFFFF" d="M346.3,69.4v-5.8l4.6-0.5c1-0.1,1.2-0.4,1.2-1.5V24.3c0-1.1-0.1-1.3-1.2-1.5l-4.6-0.5v-5.8h23.7
	c18.3,0,26.2,9.9,26.2,25.6c0,16.2-8.5,27.2-27.5,27.2H346.3z M367.5,61.5c12.9,0,17.2-7.6,17.2-18.7c0-13.4-5.1-18.4-16.7-18.4
	h-4.6v37.1H367.5z"/>
<path fill="#FFFFFF" d="M435.4,69.4v-5.7l6-0.7l-2.6-7.6h-18.1l-2.6,7.6l5.8,0.7v5.7h-20.4v-5.7l3.2-0.8c0.9-0.2,1.5-0.5,1.8-1.4
	l16-45h12.9l15.9,45.1c0.3,0.9,0.9,1,1.8,1.2l3.4,0.8v5.7H435.4z M430.1,27.7h-0.4l-6.7,19.9h13.7L430.1,27.7z"/>
<path fill="#FFFFFF" d="M473.8,69.4v-5.8l7.3-0.5c1-0.1,1.2-0.4,1.2-1.5v-12l-14.5-25.4c-0.4-0.7-0.9-0.9-1.8-1.2l-3.3-0.8l0.7-5.7
	h21.9v5.7l-5.7,0.7l8.8,17.2h0.6l8.8-17.2l-5.6-0.7l0.7-5.7h18.6v5.7l-3.1,0.8c-0.8,0.2-1.5,0.6-1.8,1.4l-13.2,25.1v12.1
	c0,1,0.1,1.3,1.2,1.4l7.7,0.6v5.8H473.8z"/>
<polygon fill="#BE1E2D" points="121.9,14.1 100.2,0 80,7.1 73.6,31.1 93.4,62.4 124.9,85.3 158.2,57 174.9,23.5 162.2,5.6 
	142.1,3.5 "/>
</svg>
