<?xml version="1.0" encoding="utf-8"?>
<!-- Generator: Adobe Illustrator 18.1.1, SVG Export Plug-In . SVG Version: 6.00 Build 0)  -->
<svg version="1.1" id="Layer_1" xmlns="http://www.w3.org/2000/svg" xmlns:xlink="http://www.w3.org/1999/xlink" x="0px" y="0px"
	 viewBox="0 0 511.7 122.6" enable-background="new 0 0 511.7 122.6" xml:space="preserve">
<path fill="#FFFFFF" d="M46.9,87.4c-0.9,0.1-1.2,0.3-1.2,1v15.7c-5.6,2.6-12.9,3.5-18.9,3.5C6.9,107.6,0,95.8,0,80.1
	c0-15.6,9-27.2,27.4-27.2c5.3,0,12.1,1.3,16.5,4.2v13.8l-8.1-0.6l-1.1-6.6c-0.2-1-0.5-1.3-1.2-1.5c-1.8-0.5-4.5-0.9-6.7-0.9
	c-9.4,0-15,7.2-15,18.6c0,12.1,5.1,19.2,15.6,19.2c2,0,4.4-0.2,6.1-0.5c0.8-0.1,1.2-0.4,1.2-1.3v-9.6h-8.1l1-6.6h22.4v5.8L46.9,87.4
	z"/>
<path fill="#FFFFFF" d="M59.4,106.7V101l5.3-0.5c1-0.1,1.2-0.4,1.2-1.5V61.6c0-1.1-0.1-1.4-1.2-1.5l-5.3-0.5v-5.8H84v5.8l-5.6,0.6
	c-1.1,0.1-1.2,0.3-1.2,1.4V99c0,1.2,0.1,1.3,1.2,1.5L84,101v5.7H59.4z"/>
<path fill="#FFFFFF" d="M164.2,106.7V101l4.6-0.5c1-0.1,1.2-0.4,1.2-1.5V61.6c0-1.1-0.1-1.4-1.2-1.5l-4.6-0.5v-5.8H203v14.8l-8-0.4
	l-1-5.6c-0.1-0.7-0.4-0.9-1.2-0.9h-11.5v14.4h17.1v8.1h-17.1v14.7h13.1c0.8,0,1-0.1,1.2-0.8l1.2-6.4h8v15H164.2z"/>
<rect x="218.8" y="80.9" fill="#FFFFFF" width="19.8" height="9.3"/>
<path fill="#FFFFFF" d="M280.5,106.7V101l6-0.7l-2.6-7.6h-18.1l-2.6,7.6l5.8,0.7v5.7h-20.4V101l3.2-0.8c0.9-0.2,1.5-0.5,1.8-1.4
	l16-45h12.9L298.5,99c0.3,0.9,0.9,1,1.8,1.2l3.4,0.8v5.7H280.5z M275.2,65h-0.4L268,84.9h13.7L275.2,65z"/>
<rect x="313.4" y="80.9" fill="#FFFFFF" width="19.8" height="9.3"/>
<path fill="#FFFFFF" d="M346.3,106.7v-5.8l4.6-0.5c1-0.1,1.2-0.4,1.2-1.5V61.6c0-1.1-0.1-1.3-1.2-1.5l-4.6-0.5v-5.8h23.7
	c18.3,0,26.2,9.9,26.2,25.6c0,16.2-8.5,27.2-27.5,27.2H346.3z M367.5,98.8c12.9,0,17.2-7.6,17.2-18.7c0-13.4-5.1-18.4-16.7-18.4
	h-4.6v37.1H367.5z"/>
<path fill="#FFFFFF" d="M435.4,106.7V101l6-0.7l-2.6-7.6h-18.1l-2.6,7.6l5.8,0.7v5.7h-20.4V101l3.2-0.8c0.9-0.2,1.5-0.5,1.8-1.4
	l16-45h12.9L453.4,99c0.3,0.9,0.9,1,1.8,1.2l3.4,0.8v5.7H435.4z M430.1,65h-0.4l-6.7,19.9h13.7L430.1,65z"/>
<path fill="#FFFFFF" d="M473.8,106.7v-5.8l7.3-0.5c1-0.1,1.2-0.4,1.2-1.5V87l-14.5-25.4c-0.4-0.7-0.9-0.9-1.8-1.2l-3.3-0.8l0.7-5.7
	h21.9v5.7l-5.7,0.7l8.8,17.2h0.6l8.8-17.2l-5.6-0.7l0.7-5.7h18.6v5.7l-3.1,0.8c-0.8,0.2-1.5,0.6-1.8,1.4l-13.2,25.1V99
	c0,1,0.1,1.3,1.2,1.4l7.7,0.6v5.8H473.8z"/>
<polygon fill="#BE1E2D" points="121.9,51.4 100.2,37.3 80,44.4 73.6,68.5 93.4,99.7 124.9,122.6 158.2,94.3 174.9,60.8 162.2,42.9 
	142.1,40.8 "/>
<g>
	<path fill="#FFFFFF" d="M251.2,14.9c0,2.8-2.1,5.5-6,5.5c-3.3,0-6.1-2.5-6.3-5.6c0.6,0,3.1,0,3.5,0c0.1,1.6,1.2,2.5,3.1,2.4
		c1.7-0.1,2.5-1.5,2.5-2.6c0-1.3-0.2-2.6-4-3.9c-3.2-1.1-4.8-2.5-4.8-5.6c0-3.1,2.9-5.1,5.5-5.1c4.2-0.1,6.2,2.6,6.1,4.9h-3.5
		c-0.1-1.2-1.3-2-2.5-2c-1.3,0-2.5,0.8-2.5,2.5c0,1.8,1.1,2.4,3.7,3.3C250.6,10.2,251.2,12.3,251.2,14.9z"/>
	<path fill="#FFFFFF" d="M213.2,14.9c0,2.8-2.1,5.5-6,5.5c-3.3,0-6.1-2.5-6.3-5.6c0.6,0,3.1,0,3.5,0c0.1,1.6,1.2,2.5,3.1,2.4
		c1.7-0.1,2.5-1.5,2.5-2.6c0-1.3-0.2-2.6-4-3.9c-3.2-1.1-4.8-2.5-4.8-5.6c0-3.1,2.9-5.1,5.5-5.1c4.2-0.1,6.2,2.6,6.1,4.9h-3.5
		c-0.1-1.2-1.3-2-2.5-2c-1.3,0-2.5,0.8-2.5,2.5c0,1.8,1.1,2.4,3.7,3.3C212.6,10.2,213.3,12.3,213.2,14.9z"/>
	<g>
		<path fill="#FFFFFF" d="M358.2,2.1l0.2,0c0.2,0,0.4-0.1,0.4-0.2c0-0.2-0.1-0.2-0.3-0.3c-0.1,0-0.2,0-0.2,0L358.2,2.1z M358.2,3
			l-0.4,0l0-1.6c0.2,0,0.4-0.1,0.6-0.1c0.3,0,0.4,0.1,0.6,0.1c0.1,0.1,0.2,0.2,0.2,0.3c0,0.2-0.1,0.3-0.3,0.4v0
			c0.2,0.1,0.2,0.2,0.3,0.4c0,0.3,0.1,0.3,0.1,0.4l-0.4,0c-0.1-0.1-0.1-0.2-0.1-0.4c0-0.2-0.1-0.3-0.3-0.3l-0.2,0L358.2,3z
			 M358.5,0.8c-0.7,0-1.3,0.6-1.3,1.3c0,0.7,0.5,1.3,1.3,1.3c0.7,0,1.3-0.6,1.3-1.3C359.7,1.4,359.2,0.8,358.5,0.8L358.5,0.8z
			 M358.5,0.5c0.9,0,1.7,0.7,1.6,1.6c0,0.9-0.7,1.6-1.7,1.6c-0.9,0-1.7-0.7-1.7-1.7C356.8,1.2,357.6,0.5,358.5,0.5L358.5,0.5z"/>
	</g>
	<polygon fill="#FFFFFF" points="301.5,0.6 298.5,0.6 298.5,19.8 309.1,19.8 309.1,17 301.7,17 301.5,16.9 	"/>
	<polygon fill="#FFFFFF" points="283.4,0.6 280.3,0.6 280.3,19.8 290.9,19.8 290.9,17 283.5,17 283.4,16.9 	"/>
	<polygon fill="#FFFFFF" points="224.7,3.5 224.6,3.3 219.5,3.3 219.5,0.6 233,0.6 233,3.3 227.9,3.3 227.7,3.5 227.7,19.8 
		224.7,19.8 	"/>
	<polygon fill="#FFFFFF" points="328,0.6 317.4,0.6 317.4,19.8 328,19.8 328,17 320.6,17 320.4,16.9 320.4,11.5 320.6,11.3 
		326.7,11.3 326.7,8.5 320.6,8.5 320.4,8.4 320.4,3.5 320.6,3.3 328,3.3 	"/>
	<polygon fill="#FFFFFF" points="270.5,0.6 260,0.6 260,19.8 270.5,19.8 270.5,17 263.1,17 263,16.9 263,11.5 263.1,11.3 
		269.2,11.3 269.2,8.5 263.1,8.5 263,8.4 263,3.5 263.1,3.3 270.5,3.3 	"/>
	<polygon fill="#FFFFFF" points="193.1,0.6 182.6,0.6 182.6,19.8 193.1,19.8 193.1,17 185.8,17 185.6,16.9 185.6,11.5 185.8,11.3 
		191.9,11.3 191.9,8.5 185.8,8.5 185.6,8.4 185.6,3.5 185.8,3.3 193.1,3.3 	"/>
	<path fill="#FFFFFF" d="M342.3,0.6c-1.2,0-4.1,0-4.6,0.1v19.1h3c0-0.3,0-8.1,0-8.1l0.1-0.1h1.5h0c1.4,0,1.9,0.9,2.5,2.2
		c0.8,1.8,1.2,3.4,2,6.1l3.3,0c-0.3-1-1.4-4.4-2.4-7c-0.6-1.5-1.3-2.4-2.2-2.6v-0.1c1.6-0.6,3.3-1.7,3.4-4.6c0-1.4-0.3-2.7-1.2-3.6
		C346.5,0.9,344.7,0.6,342.3,0.6 M340.8,8.5l-0.1-0.1V3.5l0.1-0.1l1.9,0c2.2,0,3,1.4,3,2.5c0,2.2-1.5,2.7-3,2.7H340.8z"/>
	<path fill="#FFFFFF" d="M166.9,0.6c-0.1,0-0.1,0-0.2,0c-1.1,0-4.1,0-4.7,0.1v7.9v2.2v9c0.6,0.1,3.6,0.1,4.8,0.1
		c3.1,0,4.2-0.3,5.4-1.4c1-0.9,1.5-2.2,1.5-3.9c0-2.8-1.3-4.1-3-4.8V9.7C172,9,173,7.8,173,5.4c0-1.5-0.5-2.6-1.4-3.4
		C170.5,0.9,169,0.6,166.9,0.6 M165.2,8.5l-0.1-0.1l0-4.9l0.1-0.1c0.2,0,0.3,0,0.5,0c0.4,0,0.8,0,1.4,0c2.3,0,3,1.1,3,2.5
		c0,1.6-0.7,2.7-2.8,2.7C167.2,8.5,165.2,8.5,165.2,8.5z M166,17c-0.4,0-0.7,0-0.8,0l-0.1-0.1v-5.4l0.1-0.1l1.9,0c2.1,0,3.6,1,3.6,3
		c0,1.5-0.7,2.7-3.4,2.7C166.8,17,166.4,17,166,17"/>
</g>
</svg>
