<svg xmlns="http://www.w3.org/2000/svg"><defs><font horiz-adv-x="1126"><font-face units-per-em="2048" ascent="1638" descent="-410"/><glyph horiz-adv-x="2048"/><glyph horiz-adv-x="2048"/><glyph horiz-adv-x="512"/><glyph horiz-adv-x="512"/><glyph horiz-adv-x="512"/><glyph horiz-adv-x="512"/><glyph unicode="!" horiz-adv-x="798" d="M242 123q0 61 44 102t113 41q70 0 114-41t44-102-44-101-114-40-113.5 39.5T242 123zm18 1278h281l-13-946H270z"/><glyph unicode="&quot;" horiz-adv-x="1024" d="M199 1311q0 49 31.5 80.5T313 1423q47 0 81-32.5t34-79.5v-8l-51-345H250zm397 0q0 49 31.5 80.5T711 1423q47 0 80.5-32.5T825 1311v-8l-51-345H647z"/><glyph unicode="#" d="M90 414v164h203l35 256H137v163h213l56 404h172l-56-404h158l57 404h172l-57-404h184V834H831l-36-256h194V414H770L713 0H543l59 414H440L383 0H211l57 414H90zm373 164h160l36 256H500z"/><glyph unicode="$" d="M96 66l68 219q215-68 342-68 98 0 162 37 80 45 80 135 0 96-164 180-283 147-303 162-164 119-164 299 0 143 94 242 86 88 231 123v137h244v-127q123-16 281-72l-82-215q-188 61-293 62-209 0-209-152 0-82 164-162 256-129 305-166 164-123 164-305 0-150-94-252Q836 47 686 8v-190H442v172Q278-2 96 66z"/><glyph unicode="%" horiz-adv-x="2048" d="M131 1014q0 170 94 286 102 123 269 123 168 0 266-119.5t98-289.5q0-172-94-293-102-131-270-131-166 0-269 131-94 121-94 293zm207-6q0-86 35-148 41-74 121-74t122 74q35 62 35 148t-35 147q-43 72-122 72-80 0-121-74-35-59-35-145zM504 0l860 1462h199L707 0H504zm661 401q0 170 95 287 102 123 268 123 168 0 266-120t98-290q0-172-94-292-102-131-270-132-166 0-268 132-94 121-95 292zm207-6q0-86 35-147 41-74 121-74t123 74q35 61 35 147t-35 148q-43 72-123 71-80 0-121-73-35-59-35-146z"/><glyph unicode="&" horiz-adv-x="1454" d="M113 391q0 240 293 397-135 160-136 291 0 156 113 250t270 94q147 0 252-86 113-92 113-235 0-205-285-359L1430-2h-281l-119 121Q844-22 612-23 411-23 270 82 112 199 113 391zm260 17q0-96 76-154 68-55 165-55 152 0 242 90L553 633q-86-49-123-88-57-59-57-137zm129 688q0-68 106-193 180 94 180 207 0 55-40.5 86t-98.5 31q-61 0-104-35t-43-96z"/><glyph unicode="'" horiz-adv-x="512" d="M141 1311q0 49 32 80.5t83 31.5q47 0 81-32.5t34-79.5v-8l-52-345H193z"/><glyph unicode="(" horiz-adv-x="675" d="M137 625q0 481 293 929l172-86q-205-420-205-843 0-426 205-842l-172-86Q137 148 137 625z"/><glyph unicode=")" horiz-adv-x="675" d="M137-217q205 416 205 842 0 424-205 843l172 86q293-448 293-929 0-477-293-928z"/><glyph unicode="*" d="M115 1079q0 51 32.5 85t83.5 34q16 0 33-4l8-2 209-113 11 8-39 228q0 49 31.5 80.5T567 1427q47 0 81-32.5t34-79.5v-8l-39-220 6-8 209 115q18 6 37 6 47 0 80-36t33-85q0-82-78-102l-8-2-222-33-8-16 180-176q20-29 21-66 0-59-47-94-33-25-72-25-55 0-88 49l-4 7-109 217h-18q0-8-111-222l-6-6q-33-49-88-49-37 0-69 25-47 33-48 92 0 37 21 67l4 7 182 174-8 14-239 37q-78 20-78 102z"/><glyph unicode="+" horiz-adv-x="1204" d="M90 414v202h412v408h203V616h407V414H705V0H502v414H90z"/><glyph unicode="," horiz-adv-x="512" d="M102-186l66 362q6 37 42 63.5t75 26.5q53 0 92-36t39-89q0-33-10-51L221-229z"/><glyph unicode="-" horiz-adv-x="679" d="M55 430v219h578V430H55z"/><glyph unicode="." horiz-adv-x="512" d="M98 123q0 61 44 102t114 41 114-41 44-102-44-102-114-41-114 40.5T98 123z"/><glyph unicode="/" horiz-adv-x="876" d="M25-37l612 1473h215L240-37H25z"/><glyph unicode="0" d="M66 700q0 723 497 723 498 0 498-723 0-301-98-485Q838-23 563-23q-274 0-399 238-98 184-98 485zm268 0q0-498 229-497 230-1 230 497 0 207-29 310-51 188-201 188t-201-188q-29-104-28-310z"/><glyph unicode="1" d="M164 1231l405 184h197V0H510v1151l-250-121z"/><glyph unicode="2" d="M80 137q0 180 170 363l315 276q170 150 170 256 0 170-203 170-147 0-344-94l-96 195q236 121 490 120 186 0 309-92 135-102 135-282 0-145-166-318-12-12-311-276-168-150-172-234h655V0H100Q80 63 80 137z"/><glyph unicode="3" d="M57 80l80 196q215-84 355-83 111 0 186 51 88 57 88 164 0 150-182 188-61 12-301 16v205h110q328 0 328 217 0 82-60.5 125T508 1202q-162 0-340-104-16 33-50 97.5T66 1292q154 72 229 97 115 35 246 34 186 0 311-94 135-106 135-287 0-104-65.5-195T758 731l2-2q123-29 197.5-117t74.5-213q0-207-158-321Q733-22 518-23 278-23 57 80z"/><glyph unicode="4" d="M4 408q0 59 49 143l510 864h324V518l157-6V311l-157-6V0H631v303H29Q4 358 4 408zm305 112h324v602h-4q-2-4-25-47z"/><glyph unicode="5" d="M74 84l86 203q176-88 336-88 109 0 184.5 62.5T756 428q0 113-90 180-82 59-201 60-88 0-252-50-100 16-100 146 0 18 2 35l73 602h770v-221H424l-39-312q98 25 178 25 201 0 334-128t133-327q0-215-156-342Q729-23 510-23 272-23 74 84z"/><glyph unicode="6" d="M74 500q0 565 694 952l133-190q-322-182-465-381 78 43 180 43 190 0 313.5-134T1053 463q0-213-134.5-349.5T571-23q-227 0-362 145.5T74 500zm272-29q0-115 53-188 57-84 168-84 104 0 164 80 53 69 53 178 0 106-53 176-59 78-164 78-135 0-209-140-12-33-12-100z"/><glyph unicode="7" d="M98 1180v221h981q13-45 13-68 0-53-70-159Q643 596 545 0H264q55 305 180 614 129 317 301 566H98z"/><glyph unicode="8" d="M66 393q0 117 59 209t166 131q-184 84-185 295 0 184 140 295 127 100 317 100t318-100q139-111 139-295 0-211-184-295 106-39 165.5-131t59.5-209q0-197-154-311Q768-22 563-23 358-23 219 82 65 197 66 393zm262 8q0-102 65.5-156.5T563 190t170 54.5T799 401q0 164-170 211-37 10-66 11-29 0-65-11-170-47-170-211zm39 613q0-137 141-189 35-12 55-12 18 0 55 12 142 48 142 189 0 92-52.5 144T563 1210t-144-52-52-144z"/><glyph unicode="9" d="M70 938q0 213 134 349t347 136q227 0 362.5-145.5T1049 901q0-565-695-952L221 139q322 182 465 381-78-43-180-43-190 0-316 137Q69 745 70 938zm268 6q0-106 53-176 59-78 164-78 135 0 209 139 12 33 12 101 0 115-51 188-59 84-170 84-104 0-164-80-53-70-53-178z"/><glyph unicode=":" horiz-adv-x="552" d="M119 123q0 61 44 102t113 41q70 0 114-41t44-102-44-102-114-41-113.5 40.5T119 123zm0 717q0 61 44 102t113 41q70 0 114-41t44-102-44-102.5T276 696t-113.5 41T119 840z"/><glyph unicode=";" horiz-adv-x="552" d="M102 840q0 61 44 102t114 41 114-41 44-102-44-102.5T260 696t-114 41-44 103zm2-1026l66 362q6 37 41 63.5t74 26.5q53 0 93-36t40-89q0-29-12-51L223-229z"/><glyph unicode="<" horiz-adv-x="1204" d="M59 487v175l1086 415V846L406 571l737-268V68z"/><glyph unicode="=" horiz-adv-x="1204" d="M92 195v202h1030V195H92zm0 436v203h1030V631H92z"/><glyph unicode=">" horiz-adv-x="1204" d="M59 846v231l1086-415V487L61 68v235l738 268z"/><glyph unicode="?" horiz-adv-x="1013" d="M74 1321q213 102 393 102 195 0 319-94 140-107 140-295T723 676q-57-47-115-94-45-49-45-138v-32H330q-6 41-6 80 0 123 88 219 80 74 159 147 88 86 88 180 0 80-61 125-53 39-135 39-123 0-291-80zM285 123q0 63 46 103t111 40q66 0 112-40t46-103-46-103-112-40-111.5 39.5T285 123z"/><glyph unicode="@" horiz-adv-x="1607" d="M90 629q0 338 226.5 566T881 1423q274 0 455.5-168T1518 815q0-139-56-258-59-129-170-197-86-53-162-53h-28q-113 0-160 84-111-84-235-84-137 0-222.5 82T399 608q0 205 162 350 156 141 365 142 125 0 278-60-31-76-65-254-14-66-31-131-20-94-21-123 0-53 41-53 100 0 160 119 47 96 47 209 0 203-129 325.5T872 1255q-260 0-423.5-180T285 633q0-213 123.5-350.5T743 145q154 0 312 68l73-147Q944-22 733-23q-285 0-464 183.5T90 629zm518-23q0-57 36-91t93-34q88 0 166 66 23 129 78 381-37 4-55 4-133 0-225.5-95.5T608 606z"/><glyph unicode="A" horiz-adv-x="1413" d="M16 0l580 1401h244L1397 0h-287L971 356H430L291 2zm504 578h367l-185 473z"/><glyph unicode="B" horiz-adv-x="1173" d="M150 14v1368q213 41 356 41 538 0 538-394 0-99-58-181T836 727v-4q121-29 190.5-120t69.5-216q0-410-594-410-162 0-352 37zm256 201q61-10 114-10 311 0 311 201 0 204-291 204H406V215zm0 616h124q252 1 252 189 0 111-82 154-57 28-174 28h-8q-51 0-112-10V831z"/><glyph unicode="C" horiz-adv-x="1257" d="M88 698q0 315 185.5 519T772 1421q193 0 404-94l-84-209q-182 80-324 80-193 0-303-145-102-131-103-330 0-233 119-373 127-147 357-147 139 0 276 65l66-196Q992-20 805-20q-317 0-517 200.5T88 698z"/><glyph unicode="D" horiz-adv-x="1417" d="M150 8v1378q176 37 417 37 348 0 547-168 215-180 215-520 0-365-223-565Q893-23 522-23 317-23 150 8zm256 207q72-16 161-16 233 0 365 151 123 145 123 383 0 221-121 345t-340 124q-109 0-188-18V215z"/><glyph unicode="E" horiz-adv-x="1062" d="M150 0v1401h817v-221H406V836h468V623H406V221h579V0H150z"/><glyph unicode="F" horiz-adv-x="1028" d="M150 0v1401h817v-221H406V836h468V623H406V0H150z"/><glyph unicode="G" horiz-adv-x="1447" d="M88 698q0 346 203 539 199 186 547 186 195 0 424-94l-86-213q-197 84-361 84-211 0-332-130T362 727q0-233 117-375 126-149 354-149h3q139 0 225 35-6 35-6 67v430h254V88Q1082-23 842-23q-332 0-543 196T88 698z"/><glyph unicode="H" horiz-adv-x="1427" d="M150 0v1401h256V836h616v565h256V0h-256v623H406V0H150z"/><glyph unicode="I" horiz-adv-x="563" d="M150 0v1401h256V0H150z"/><glyph unicode="J" horiz-adv-x="598" d="M-16-242Q88-152 131-72q49 88 49 213v1260h256V190q0-141-16-223-27-121-101-215-66-82-174-155z"/><glyph unicode="K" horiz-adv-x="1286" d="M150 0v1401h256V858l489 543h336L602 717q47-14 86-60L1262 0H926L506 500q-55 66-96 90h-4V0H150z"/><glyph unicode="L" horiz-adv-x="1007" d="M150 0v1401h256V221h579V0H150z"/><glyph unicode="M" horiz-adv-x="1767" d="M150 0v1399h378l359-746h4q6 31 31 80l319 666h377V0h-250v1159h-4q-8-37-16-53L948 299q-76 0-121 34t-94 134l-313 641q-8 16-17 49h-4V0H150z"/><glyph unicode="N" horiz-adv-x="1546" d="M150 0v1401h382l574-1039q10-20 31-61h4v1100h256V16q-76-30-147-30h-5q-186 0-289 178l-520 899q-16 29-26 51h-4V0H150z"/><glyph unicode="O" horiz-adv-x="1501" d="M88 698q0 319 168 516 180 209 494 209 315 0 495-209 168-197 168-516 0-315-172-512Q1061-23 750-23T260 184Q88 383 88 698zm274 0q0-207 89-342 103-157 297-157h2q197 0 299 157 90 135 90 342 0 211-88 346-102 158-301 158t-301-158q-86-135-87-346z"/><glyph unicode="P" horiz-adv-x="1144" d="M150 0v1384q170 39 385 39 223 0 362-100 160-117 160-330 0-215-158-338-144-114-365-114h-4q-53 0-124 10V0H150zm256 766q55-8 118-8 119 0 193 63t74 180q0 203-261 203-63 0-124-12V766z"/><glyph unicode="Q" horiz-adv-x="1548" d="M88 698q0 322 168 516 178 209 494 209 315 0 493-209 170-197 170-516 0-436-301-624 53-20 84-54l264-274h-350q-10 8-119 135-74 86-141 103-49-6-100-7-309 0-490 209Q88 383 88 698zm274 0q0-207 89-342 101-157 297-157h2q195 0 299 157 90 137 90 342 0 211-86 344-104 160-303 160t-301-160q-86-133-87-344z"/><glyph unicode="R" horiz-adv-x="1210" d="M150 0v1380q199 43 364 43 551 0 551-428 0-137-88-245.5T764 618v-4q45-2 115-110L1198 0H895L610 469q-39 63-69 92h-21q-14-2-22-2 6 0-92 6V0H150zm256 770q55-8 114-8 121 0 195 59 82 65 82 180 0 203-271 203-59 0-120-12V770z"/><glyph unicode="S" horiz-adv-x="1114" d="M90 51l64 215q196-67 334-67h4q98 0 165 37 84 45 84 135 0 109-166 188-287 137-309 154-166 121-166 323 0 193 154 297 135 90 336 90 164 0 375-71l-78-209q-182 59-289 59-221 0-221-155 0-90 166-166 258-117 311-154 166-125 166-332 0-201-168-315Q702-22 492-23 293-23 90 51z"/><glyph unicode="T" horiz-adv-x="1122" d="M8 1180v221h1106v-221H676V0H420v1180H8z"/><glyph unicode="U" horiz-adv-x="1433" d="M150 477v924h256V496q0-297 311-297t311 297v905h256V477q0-248-164-379Q970-23 717-23 465-23 313 98 149 231 150 477z"/><glyph unicode="V" horiz-adv-x="1400" d="M14 1401h287q133-324 422-1049h4q6 18 33 92l354 957h272L819-20q-121 0-207 67-66 51-94 123z"/><glyph unicode="W" horiz-adv-x="2048" d="M14 1401h291L588 352h4q4 20 24 92l275 957h299l309-1049h4q8 31 25 92l246 957h262L1626-20q-283 0-342 200l-252 848L715-20q-266 0-328 200z"/><glyph unicode="X" horiz-adv-x="1437" d="M14 0l555 723-516 678h318l364-490 363 490h309L893 721 1423 0h-319L727 530 330 0H14z"/><glyph unicode="Y" horiz-adv-x="1351" d="M14 1401h308l303-498q33-55 51-98 20 47 51 96l311 500h299L807 596V0H551v590q-18 18-49 57z"/><glyph unicode="Z" horiz-adv-x="1255" d="M82 92q0 74 61 156l703 932H119v221h1059v-182L430 221h746V0H102Q82 47 82 92z"/><glyph unicode="[" horiz-adv-x="675" d="M102-285v1821h435v-219l-175 2V-66h175v-219H102z"/><glyph unicode="\" horiz-adv-x="876" d="M25 1436h215L852-37H637z"/><glyph unicode="]" horiz-adv-x="675" d="M139-66h174v1383H139v219h434V-285H139v219z"/><glyph unicode="^" horiz-adv-x="1204" d="M49 547l453 868h200l453-868H872l-270 569-270-569H49z"/><glyph unicode="_" horiz-adv-x="972" d="M0-145h973v-140H0v140z"/><glyph unicode="`" horiz-adv-x="512" d="M20 1358q0 43 34 77.5t77 34.5q39 0 68-30l198-219-88-103-250 168q-39 27-39 72z"/><glyph unicode="a" horiz-adv-x="1099" d="M82 289q0 178 164 260 66 33 307 86 164 37 164 104 0 94-172 95-141 0-285-62l-84 186q193 88 404 89 174 0 274-78 109-86 109-256V186q0-39 14-129-262-80-436-80-180 0-303 66Q82 127 82 289zm270 18q0-125 191-125 88 0 178 29-4 27-4 39v252q-31-31-131-53-125-29-158-43-76-35-76-99z"/><glyph unicode="b" horiz-adv-x="1155" d="M123 45q10 84 10 123v1335h246V991q104 55 229 56 225 0 353-158 116-146 116-377 0-233-163.5-384T514-23q-213 0-391 68zm254 168q59-23 147-23 135 0 211 99 68 90 68 229 0 133-60 219-68 96-196 97-102 0-168-50V244q0-10-2-31z"/><glyph unicode="c" horiz-adv-x="1034" d="M78 512q0 238 148.5 386.5T612 1047q172 0 338-72l-73-199q-145 57-250 58-131 0-209-91.5T340 518q0-139 85-233.5T649 190q92 0 230 52l71-193Q790-23 635-23q-240 0-398.5 147.5T78 512z"/><glyph unicode="d" horiz-adv-x="1157" d="M78 528q0 215 119 361 129 158 350 158 125 0 229-56v512h246V190q0-41 12-137-209-76-397-76-244 0-401.5 155T78 528zm274-12q0-145 70-231 76-94 217-95 92 1 141 19-4 29-4 41v534q-63 49-168 50-131 0-198-95-57-84-58-223z"/><glyph unicode="e" horiz-adv-x="1101" d="M78 510q0 233 121 379 129 158 354 158 217 0 344-138 121-133 121-352 0-31-14-135H342q25-231 274-232 141 0 261 54l77-191Q776-23 602-23q-236 0-380 146.5T78 510zm264 104h422q-2 100-53 164-57 66-156 66-94 0-151.5-66.5T342 614z"/><glyph unicode="f" horiz-adv-x="700" d="M41 819v197l117 6v225q0 141 92 213 84 66 227 66 105-1 295-64l-63-192q-123 55-205 55-100 0-101-96v-205h277V813H403V0H158v815z"/><glyph unicode="g" horiz-adv-x="1105" d="M49-182Q49 17 283 86q-41 57-41 113 0 74 71 133-198 108-198 328 0 180 129 286 121 100 301 101 39 0 95-11.5t69-11.5h348V836q-13-1-25-1-65 0-112 19l-5-4q59-102 60-188 0-143-86-241.5T662 289q-18-4-136-15-23-2-47-17t-24-36q0-51 155-76 217-33 291-65 156-70 156-236 0-176-176-264-135-67-328-67h-6q-188 0-322 59Q49-346 49-182zm225 8q0-72 107-105 69-22 160-22h8q258 0 258 131 0 72-164 109-115 18-227 36-141-47-142-149zm76 831q0-86 54.5-134T545 475t140 48 54 134-54 133.5T545 838t-140.5-47.5T350 657z"/><glyph unicode="h" horiz-adv-x="1155" d="M133 0v1503h246V979q156 68 303 68 170 0 260-95.5t90-267.5V0H786v647q0 84-47 135.5T614 834q-111 0-235-76V0H133z"/><glyph unicode="i" horiz-adv-x="555" d="M129 1374q0 61 42 103.5t105 42.5q61 0 106.5-42.5T428 1374q0-63-44-103t-108-40q-63 0-105 40t-42 103zM158 0v1024h245V0H158z"/><glyph unicode="j" horiz-adv-x="585" d="M12-367q96 86 131 153t35 185v1053h246V0q0-256-102-385-53-68-150-133zm138 1741q0 61 41.5 103.5T297 1520q61 0 106.5-42.5T449 1374q0-63-44.5-103T297 1231t-105 40-42 103z"/><glyph unicode="k" horiz-adv-x="1099" d="M133 0v1503h246V676l332 348h321L559 573q53-16 86-55L1092 0H793L467 399q-29 35-88 76V0H133z"/><glyph unicode="l" horiz-adv-x="550" d="M123 190v1313h246V248q0-63 49-64 25 0 78 23l57-193Q447-23 348-23q-225 0-225 213z"/><glyph unicode="m" horiz-adv-x="1703" d="M123 944q268 102 461 103 213 0 305-95 170 94 342 95 166 0 258-93.5t92-261.5V0h-246v643q0 188-178 188-82 0-184-51 8-41 8-121V0H735v645q0 186-176 186-90 0-182-43 4-31 4-45V0H135v811q0 41-12 133z"/><glyph unicode="n" horiz-adv-x="1157" d="M123 944q287 102 465 103 446 0 446-365V0H788v643q0 188-202 188-86 0-207-45 4-29 4-43V0H137v801q0 45-14 143z"/><glyph unicode="o" horiz-adv-x="1183" d="M78 512q0 233 141 384t373 151q231 0 372.5-151T1106 512 964.5 128 592-23 217 131Q78 278 78 512zm272-2q0-135 53-219 63-102 189-103 125 0 188 103 54 84 54 219 0 133-54 219-63 104-188 105-125 0-189-103-53-86-53-221z"/><glyph unicode="p" horiz-adv-x="1155" d="M123 973q203 74 401 74 254 0 403.5-147.5T1077 514q0-233-146.5-385T573-23q-100 0-192 35v-473H135V844q0 41-12 129zm252-168q6-27 6-41V219q63-29 137-29 285 0 285 324 0 141-64 225-72 94-209 95-76 0-155-29z"/><glyph unicode="q" horiz-adv-x="1153" d="M78 514q0 238 150.5 385.5T629 1047q198 0 401-74-12-88-12-129V-461H772V12q-98-35-188-35-211 0-358.5 153T78 514zm274-2q0-133 77-227.5T637 190q72 0 135 29v549q0 14 2 39-74 27-151 27-137 0-207-97-63-84-64-225z"/><glyph unicode="r" horiz-adv-x="765" d="M123 934q270 113 467 113 102 0 188-23l-73-211q-66 20-136 21-98 0-184-27 2-14 2-21V0H141v780q0 47-18 154z"/><glyph unicode="s" horiz-adv-x="884" d="M68 45l71 193q143-61 246-62 156 0 156 113 0 72-117 127-190 90-213 106Q94 608 94 752q0 145 129 227 106 68 250 68 166 0 295-62l-70-190q-125 47-225 47-127 0-127-92 0-66 121-115 184-74 225-103 121-87 121-247 0-156-133-240-113-68-274-68-160 0-338 68z"/><glyph unicode="t" horiz-adv-x="792" d="M63 819v195l117 6v285h246v-281h287V811H426V266q0-88 94-88 63 0 182 41l68-199Q602-37 496-37q-315 0-316 285v565z"/><glyph unicode="u" horiz-adv-x="1157" d="M123 342v682h246V381q0-188 202-188 86 0 207 45-4 31-4 43v743h246V223q0-45 14-143Q747-22 569-23q-446 0-446 365z"/><glyph unicode="v" horiz-adv-x="1120" d="M8 1024h279l274-721h4q4 18 19 55l260 666h268L674-16q-117 0-180 32-76 37-119 138z"/><glyph unicode="w" horiz-adv-x="1765" d="M8 1024h279l241-721h4l19 55 223 666h223l258-721h5l229 721h268L1376-16q-125 0-196 43-78 47-119 159L881 686 641-16q-125 0-195 41-78 47-120 159z"/><glyph unicode="x" horiz-adv-x="1155" d="M25 0l397 539-377 485h301l250-336 223 336h291L743 504 1133 0H827L567 354 319 0H25z"/><glyph unicode="y" horiz-adv-x="1105" d="M8 1024h277l293-778 260 778h260L709-61Q576-432 311-492L182-313q227 61 324 301-70 16-115 123z"/><glyph unicode="z" horiz-adv-x="974" d="M70 88q0 72 53 141l442 582H80v213h790V834L401 213h504V0H88Q70 43 70 88z"/><glyph unicode="{" horiz-adv-x="675" d="M121 518v217q127 0 127 82v402q0 158 88 235 76 66 242 90l49-209q-53-4-92-34.5t-39-81.5V817q0-59-41-119-45-66-101-71 55-8 98.5-70.5T496 434V35q0-49 41-79t94-34l-53-215q-166 25-242 92-88 78-88 236v399q0 84-127 84z"/><glyph unicode="|" horiz-adv-x="440" d="M115-512v2048h211V-512H115z"/><glyph unicode="}" horiz-adv-x="675" d="M45-78q53 4 94 34t41 79v399q0 59 43 121.5t99 71.5q-55 6-101 71-41 59-41 119v402q0 51-39 81.5T49 1335l49 209q166-25 242-90 88-78 88-235V817q0-82 127-82V518q-127 0-127-84V35q0-158-88-236-76-68-242-92z"/><glyph unicode="~" horiz-adv-x="1204" d="M92 465q94 211 305 211 102 0 233.5-65.5T807 545q98 0 143 110l162-86q-94-211-305-211-100 0-231.5 65.5T397 489q-98 0-143-110z"/><glyph unicode="¡" horiz-adv-x="798" d="M256 905q0 61 44 101.5t114 40.5 113.5-40.5T571 905t-44-102-113-41q-70 0-114 41t-44 102zm16-1257l13 934h258l10-934H272z"/><glyph unicode="¢" d="M92 512q0 201 108.5 340T492 1032v150h231v-142q129-16 242-65l-74-199q-145 57-250 58-131 0-209-91.5T354 518q0-139 85-233.5T664 190q92 0 229 52l72-193Q840-6 723-18v-162H492V-4Q312 41 202 178T92 512z"/><glyph unicode="£" d="M98 106q0 45 25 91 23 39 47 77 57 98 57 289v64l-125 6v205l125 6v194q0 188 138 293 125 92 319 92 160 0 389-94l-112-192q-172 66-273 65-82 0-137-39-63-45-64-125V846h320V625H487q0-268-67-404h624V0H129Q98 61 98 106z"/><glyph unicode="¤" d="M-53 473v176l119 6q-2 20-3 62v31l-116 6v176l145 6q59 221 230.5 354T735 1423q187 0 359-94l-101-194q-131 66-258 65-260 0-364-264h456l-49-188H330v-21q-2-12-2-20t2-25v-27h497l-49-188H375q113-266 393-266 125 0 229 55l88-188Q933-22 754-23q-240 0-418 140-168 131-236 350z"/><glyph unicode="¥" d="M-72 1401h308l241-498q18-31 51-98 18 33 52 96l249 500h299L750 733h127V565H659v-96h218V299H659V0H403v299H188v170h215v96H188v168h111z"/><glyph unicode="¦" horiz-adv-x="458" d="M119 342h233v-692H119v692zm0 317v695h233V659H119z"/><glyph unicode="§" d="M102-207L182 6q184-53 279-53 211 0 211 149 0 84-148 158-246 127-274 148-147 109-148 272 0 137 152 225-55 68-55 168 0 172 141 268 121 82 301 82 139 0 340-71l-84-209q-178 55-262 55-70 0-121-27-61-35-61-100 0-68 147-141 225-111 277-150 147-112 147-278 0-158-129-248 33-66 33-145 0-184-148-289-129-90-321-90-156 0-357 63zm252 885q0-74 211-170 113-51 176-94 27 35 27 84 0 80-145 159-106 49-213 101-55-27-56-80z"/><glyph unicode="¨" horiz-adv-x="552" d="M-74 1294q0 49 36 82t91 33 91-33 36-82-35.5-81.5T53 1180q-55 0-91 32.5t-36 81.5zm410 0q0 49 36 82t91 33 91-33 36-82-36-81.5-91-32.5-91 32.5-36 81.5z"/><glyph unicode="©" horiz-adv-x="1607" d="M59 702q0 305 219.5 520.5T803 1438t524-215.5T1546 702t-219-520T803-33 278.5 182 59 702zm166-2q0-236 170-410.5T803 115q236 0 406.5 174.5T1380 700t-171 411-406 175q-238 0-408-175T225 700zm199 7q0 182 111.5 298.5T829 1122q125 0 246-63l-57-129q-98 47-191 47-106 0-165.5-74T602 721q0-121 71.5-202T866 438q80 0 166 41l45-131q-115-55-233-55-184 0-302 114.5T424 707z"/><glyph unicode="ª" horiz-adv-x="716" d="M74 979q0 106 98 158 47 23 184 51 98 18 99 51 0 47-93 47-86 0-176-37l-57 121q129 57 254 57 240 0 240-204V913q0-37 10-82-117-45-273-45-111 0-188 41-98 51-98 152zm22-436v153h529V543H96zm162 446q0-74 102-74 58 1 97 15-2 27-2 39v123q-14-14-115-37-82-20-82-66z"/><glyph unicode="«" d="M41 524l326 410h245L317 524l295-411H369zm471 0l326 410h247L788 524l295-411H840z"/><glyph unicode="¬" horiz-adv-x="1204" d="M31 604v213h1143V242l-261-2v364H31z"/><glyph unicode="­" horiz-adv-x="679" d="M55 430v219h578V430H55z"/><glyph unicode="®" horiz-adv-x="1607" d="M59 702q0 305 219.5 520.5T803 1438t524-215.5T1546 702t-219-520T803-33 278.5 182 59 702zm166-2q0-236 170-410.5T803 115q236 0 406.5 174.5T1380 700t-171 411-406 175q-238 0-408-175T225 700zm305-387v791q92 18 240 18 301 0 301-241 0-72-43-133.5T918 666q33-23 53-56l184-297H961L795 580q-14 25-35 47h-21q-29 0-43 2V313H530zm164 449q18-2 58-2 63 0 105 32t42 91q0 104-143 104-31 0-62-6V762z"/><glyph unicode="¯" horiz-adv-x="512" d="M-100 1214v170h698v-170h-698z"/><glyph unicode="°" horiz-adv-x="894" d="M72 1044q0 156 109.5 266.5T446 1421q156 0 266.5-110.5T823 1044 712.5 778 446 668 181 778.5 72 1044zm200 0q0-74 52.5-128T446 862q72 0 124.5 54t52.5 128-52.5 128.5T446 1227q-70 0-122-54.5T272 1044z"/><glyph unicode="±" horiz-adv-x="1204" d="M90 557v203h412v264h203V760h407V557H705V287H502v270H90zM92 0v199h1022V0H92z"/><glyph unicode="²" horiz-adv-x="727" d="M55 653q0 111 105 217 18 20 190 164 104 86 105 142 0 82-105 81-92 0-219-61l-74 145q168 82 324 82 119 0 199-57 90-66 90-180 0-88-92-182-37-41-179-154-106-84-127-131h402V555H74q-18 55-19 98z"/><glyph unicode="³" horiz-adv-x="727" d="M72 610q10 25 30.5 73t30.5 73q143-53 227-54 59 0 101 25 49 29 49 84 0 76-107 96-37 6-167 6h-21v156q135 0 164 6 102 20 102 103 0 80-110 79-41 0-115-24-66-23-100-43l-80 147q186 86 315 86 119 0 201-59 90-68 90-182 0-121-109-181 136-53 136-196 0-131-105-203-90-61-227-61-150 0-305 69z"/><glyph unicode="´" horiz-adv-x="512" d="M117 1221l198 219q29 31 68 30 43 0 77-34.5t34-77.5q0-45-39-72l-250-168z"/><glyph unicode="¶" horiz-adv-x="1363" d="M143 993q0 203 144 312 129 96 340 96h583V-213H963v1397H811V-213H565v791q-186 16-299 120-123 113-123 295z"/><glyph unicode="·" horiz-adv-x="512" d="M98 553q0 61 44 102t114 41 114-41 44-102-44-102-114-41-114 41-44 102z"/><glyph unicode="¸" horiz-adv-x="512" d="M154-307l34 94q80-45 127-45 66 0 66 51 0 39-49 39-31 0-129-25l67 218 103-7-35-92q10 2 29 2 59 0 99-36t40-95q0-154-180-153-88 0-172 49z"/><glyph unicode="¹" horiz-adv-x="727" d="M61 1305l269 116h143V557H281v664l-144-66z"/><glyph unicode="º" horiz-adv-x="796" d="M80 1106q0 141 89 231t230 90 230.5-90 89.5-231-89-231.5T399 784q-141 0-230 90.5T80 1106zm57-563v153h529V543H137zm129 561q0-72 31-119 37-57 104-57 131 0 131 176 0 72-28 121-35 59-103 59t-104-59q-31-49-31-121z"/><glyph unicode="»" d="M41 113l297 411L41 934h246l325-410-323-411H41zm471 0l297 411-297 410h246l327-410-325-411H512z"/><glyph unicode="¼" horiz-adv-x="1679" d="M49 1305l268 116h144V557H268v664l-143-66zM250 0l860 1458h178L432 0H250zm600 258q0 41 35 92l354 512h221V342l96-4V180l-96-2V0h-192v176H870q-20 47-20 82zm217 82l209 2v287z"/><glyph unicode="½" horiz-adv-x="1679" d="M49 1305l268 116h144V557H268v664l-143-66zM250 0l860 1458h178L432 0H250zm766 96q0 111 104 219 18 18 191 164 104 86 104 142 0 82-104 81-92 0-219-61l-74 145q168 82 321 82 119 0 201-57 90-66 90-180 0-88-92-182-39-41-180-154-106-84-127-131h403V0h-602q-16 49-16 96z"/><glyph unicode="¾" horiz-adv-x="1679" d="M31 610q10 25 30.5 73T92 756q143-53 227-54 59 0 101 25 49 29 49 84 0 76-107 96-37 6-167 6h-21v156q135 0 164 6 102 20 102 103 0 80-110 79-41 0-115-24-66-23-100-43l-80 147q186 86 315 86 119 0 201-59 90-68 90-182 0-121-109-181 136-53 136-196 0-131-105-203-90-61-227-61-150 0-305 69zM379-2l858 1458h180L559-2H379zm555 258q0 39 37 92l354 514h219V340l96-4V180l-96-4V-2h-192v178H954q-20 47-20 80zm219 82l209 4v287z"/><glyph unicode="¿" horiz-adv-x="1013" d="M74 10q0 188 202 355 57 45 113 92 47 49 47 135v33h234q6-39 6-80 0-123-88-217-80-72-160-146-88-82-88-176 0-80 61-123 53-37 136-37 123 0 290 80l99-198Q711-374 532-375q-197 0-319 92Q74-179 74 10zm325 893q0 63 46.5 103.5T557 1047q66 0 112-40.5T715 903t-46-103-112-40-112 40-46 103z"/><glyph unicode="À" horiz-adv-x="1413" d="M16 0l580 1401h244L1397 0h-287L971 356H430L291 2zm453 1708q0 43 34 77.5t77 34.5q39 0 68-30l198-219-88-103-250 168q-39 27-39 72zm51-1130h367l-185 473z"/><glyph unicode="Á" horiz-adv-x="1413" d="M16 0l580 1401h244L1397 0h-287L971 356H430L291 2zm504 578h367l-185 473zm23 993l198 219q29 31 68 30 43 0 77-34.5t34-77.5q0-45-39-72l-250-168z"/><glyph unicode="Â" horiz-adv-x="1413" d="M16 0l580 1401h244L1397 0h-287L971 356H430L291 2zm359 1558l236 224q53 51 98 51 39 0 92-51l236-224-86-90-246 160-244-160zm145-980h367l-185 473z"/><glyph unicode="Ã" horiz-adv-x="1413" d="M16 0l580 1401h244L1397 0h-287L971 356H430L291 2zm359 1573q59 188 205 188 72 0 139-37 10-4 53-26 33-16 56-17 53 0 73 80l132-57q-59-188-205-188-70 0-137 36-8 2-54 27-33 16-57 16-53 0-74-79zm145-995h367l-185 473z"/><glyph unicode="Ä" horiz-adv-x="1413" d="M16 0l580 1401h244L1397 0h-287L971 356H430L291 2zm352 1648q0 49 36 82t91 33 91-33 36-82-35.5-81.5T495 1534q-55 0-91 32.5t-36 81.5zM520 578h367l-185 473zm258 1070q0 49 36 82t91 33 91-33 36-82-36-81.5-91-32.5-91 32.5-36 81.5z"/><glyph unicode="Å" horiz-adv-x="1413" d="M16 0l580 1401h244L1397 0h-287L971 356H430L291 2zm500 1688q0 80 55.5 136t135.5 56 136-56 56-136-56.5-136.5T707 1495q-80 0-135.5 56.5T516 1688zm4-1110h367l-185 473zm98 1110q0-37 26-66t63-29 63.5 29 26.5 66-27 65.5-63 28.5q-37 0-63-29t-26-65z"/><glyph unicode="Æ" horiz-adv-x="1832" d="M-111 0l947 1401h897v-221h-562V836h469V623h-469V221h580V0H915v377H442L199 0h-310zm707 598h319v477z"/><glyph unicode="Ç" horiz-adv-x="1257" d="M88 698q0 315 185.5 519T772 1421q193 0 404-94l-84-209q-182 80-324 80-193 0-303-145-102-131-103-330 0-223 125-367 131-154 351-153 139 0 276 65l66-196Q994-22 786-20l-14-54q10 2 29 2 59 0 99-35.5t40-95.5q0-154-180-153-86 0-172 49l35 84q63-37 129-37 63 0 63 53 0 41-61 41-53 0-117-22l47 176Q410 27 248 225 88 418 88 698z"/><glyph unicode="È" horiz-adv-x="1062" d="M150 0v1401h817v-221H406V836h468V623H406V221h579V0H150zm210 1708q0 43 34 77.5t77 34.5q39 0 68-30l198-219-88-103-250 168q-39 27-39 72z"/><glyph unicode="É" horiz-adv-x="1062" d="M150 0v1401h817v-221H406V836h468V623H406V221h579V0H150zm284 1571l198 219q29 31 68 30 43 0 77-34.5t34-77.5q0-45-39-72l-250-168z"/><glyph unicode="Ê" horiz-adv-x="1062" d="M150 0v1401h817v-221H406V836h468V623H406V221h579V0H150zm100 1558l236 224q53 51 98 51 39 0 92-51l236-224-86-90-246 160-244-160z"/><glyph unicode="Ë" horiz-adv-x="1062" d="M150 0v1401h817v-221H406V836h468V623H406V221h579V0H150zm95 1648q0 49 36 82t91 33 91-33 36-82-35.5-81.5T372 1534q-55 0-91 32.5t-36 81.5zm410 0q0 49 36 82t91 33 91-33 36-82-36-81.5-91-32.5-91 32.5-36 81.5z"/><glyph unicode="Ì" horiz-adv-x="563" d="M43 1708q0 43 34 78t77 35q39 0 67-31l199-219-88-103-250 168q-39 27-39 72zM150 0v1401h256V0H150z"/><glyph unicode="Í" horiz-adv-x="563" d="M135 1571l199 219q29 31 67 31 43 0 77-35t34-78q0-45-39-72l-250-168zM150 0v1401h256V0H150z"/><glyph unicode="Î" horiz-adv-x="563" d="M-43 1559l236 223q53 51 98 51 39 0 92-51l235-223-86-91-245 160-244-160zM150 0v1401h256V0H150z"/><glyph unicode="Ï" horiz-adv-x="563" d="M-59 1649q0 49 35.5 81.5T68 1763q55 0 91-32.5t36-81.5-36-82-91-33-91 32.5-36 82.5zM150 0v1401h256V0H150zm200 1649q0 49 36 81.5t91 32.5 91-32.5 36-81.5-36-82-91-33-91 32.5-36 82.5z"/><glyph unicode="Ð" horiz-adv-x="1468" d="M43 627v221h158v538q176 37 417 37 348 0 547-168 215-180 215-520 0-365-223-565Q944-23 573-23 368-23 201 8v619H43zm414-412q72-16 161-16 233 0 365 151 123 145 123 383 0 221-121 345t-340 124q-109 0-188-18V848h323V627H457V215z"/><glyph unicode="Ñ" horiz-adv-x="1546" d="M150 0v1401h382l574-1039q10-20 31-61h4v1100h256V16q-78-31-152-30-186 0-289 178l-520 899q-16 29-26 51h-4V0H150zm296 1573q59 188 205 188 72 0 139-37 10-4 53-26 33-16 56-17 53 0 73 80l132-57q-59-188-205-188-70 0-137 36-8 2-54 27-33 16-57 16-53 0-74-79z"/><glyph unicode="Ò" horiz-adv-x="1501" d="M88 698q0 319 168 516 180 209 494 209 315 0 495-209 168-197 168-516 0-315-172-512Q1061-23 750-23T260 184Q88 383 88 698zm274 0q0-207 89-342 104-158 299-157 197 0 299 157 90 135 90 342 0 211-88 346-102 158-301 158t-301-158q-86-135-87-346zm156 1010q0 43 34 77.5t77 34.5q39 0 68-30l198-219-88-103-250 168q-39 27-39 72z"/><glyph unicode="Ó" horiz-adv-x="1501" d="M88 698q0 319 168 516 180 209 494 209 315 0 495-209 168-197 168-516 0-315-172-512Q1061-23 750-23T260 184Q88 383 88 698zm274 0q0-207 89-342 104-158 299-157 197 0 299 157 90 135 90 342 0 211-88 346-102 158-301 158t-301-158q-86-135-87-346zm242 873l198 219q29 31 68 30 43 0 77-34.5t34-77.5q0-45-39-72l-250-168z"/><glyph unicode="Ô" horiz-adv-x="1501" d="M88 698q0 319 168 516 180 209 494 209 315 0 495-209 168-197 168-516 0-315-172-512Q1061-23 750-23T260 184Q88 383 88 698zm274 0q0-207 89-342 104-158 299-157 197 0 299 157 90 135 90 342 0 211-88 346-102 158-301 158t-301-158q-86-135-87-346zm66 860l236 224q53 51 98 51 39 0 92-51l236-224-86-90-246 160-244-160z"/><glyph unicode="Õ" horiz-adv-x="1501" d="M88 698q0 319 168 516 180 209 494 209 315 0 495-209 168-197 168-516 0-315-172-512Q1061-23 750-23T260 184Q88 383 88 698zm274 0q0-207 89-342 104-158 299-157 197 0 299 157 90 135 90 342 0 211-88 346-102 158-301 158t-301-158q-86-135-87-346zm52 875q59 188 205 188 72 0 139-37 10-4 53-26 33-16 56-17 53 0 73 80l132-57q-59-188-205-188-70 0-137 36-8 2-54 27-33 16-57 16-53 0-74-79z"/><glyph unicode="Ö" horiz-adv-x="1501" d="M88 698q0 319 168 516 180 209 494 209 315 0 495-209 168-197 168-516 0-315-172-512Q1061-23 750-23T260 184Q88 383 88 698zm274 0q0-207 89-342 104-158 299-157 197 0 299 157 90 135 90 342 0 211-88 346-102 158-301 158t-301-158q-86-135-87-346zm43 950q0 49 36 82t91 33 91-33 36-82-35.5-81.5T532 1534q-55 0-91 32.5t-36 81.5zm410 0q0 49 36 82t91 33 91-33 36-82-36-81.5-91-32.5-91 32.5-36 81.5z"/><glyph unicode="×" horiz-adv-x="1204" d="M125 190l334 334-334 334 139 141 334-335 336 335 139-141-334-334 334-334L932 51 600 385 266 51z"/><glyph unicode="Ø" horiz-adv-x="1517" d="M92 698q0 322 168 516 178 209 494 209 264 0 438-151l131 151 102-86-143-166q135-193 135-473 0-315-172-512Q1065-23 754-23q-236 0-400 123L240-33 125 53l127 146Q92 394 92 698zm275 0q0-168 63-297l596 682q-100 119-272 119-199 0-301-160-86-133-86-344zm147-413q94-86 240-86 195 0 299 157 90 137 90 342 0 147-45 260z"/><glyph unicode="Ù" horiz-adv-x="1433" d="M150 477v924h256V496q0-297 311-297t311 297v905h256V477q0-248-164-379Q970-23 717-23 465-23 313 98 149 231 150 477zm353 1231q0 43 34 77.5t77 34.5q39 0 68-30l198-219-88-103-250 168q-39 27-39 72z"/><glyph unicode="Ú" horiz-adv-x="1433" d="M150 477v924h256V496q0-297 311-297t311 297v905h256V477q0-248-164-379Q970-23 717-23 465-23 313 98 149 231 150 477zm411 1094l198 219q29 31 68 30 43 0 77-34.5t34-77.5q0-45-39-72l-250-168z"/><glyph unicode="Û" horiz-adv-x="1433" d="M150 477v924h256V496q0-297 311-297t311 297v905h256V477q0-248-164-379Q970-23 717-23 465-23 313 98 149 231 150 477zm241 1081l236 224q53 51 98 51 39 0 92-51l236-224-86-90-246 160-244-160z"/><glyph unicode="Ü" horiz-adv-x="1433" d="M150 477v924h256V496q0-297 311-297t311 297v905h256V477q0-248-164-379Q970-23 717-23 465-23 313 98 149 231 150 477zm231 1171q0 49 36 82t91 33 91-33 36-82-35.5-81.5T508 1534q-55 0-91 32.5t-36 81.5zm410 0q0 49 36 82t91 33 91-33 36-82-36-81.5-91-32.5-91 32.5-36 81.5z"/><glyph unicode="Ý" horiz-adv-x="1351" d="M14 1401h308l303-498q29-47 51-98 20 47 51 96l311 500h299L807 596V0H551v590q-35 35-49 57zm506 170l199 219q29 31 67 31 43 0 77-35t34-78q0-45-39-72l-250-168z"/><glyph unicode="Þ" horiz-adv-x="1144" d="M150 0v1401h256v-238q86 4 129 4 223 0 362-100 160-117 160-330 0-217-158-340-145-113-369-112-57 0-124 10V0H150zm256 510q51-8 118-8 117 0 192 64t75 179q0 203-261 203-63 0-124-12V510z"/><glyph unicode="ß" horiz-adv-x="1208" d="M123 0v1008q0 231 125 373.5T602 1524q172 0 298-106.5t126-276.5q0-121-59-230-29 6-47 7-55 0-94.5-32T786 799q0-59 91-133 150-121 165-138 91-96 91-215 0-164-121-254-109-82-279-82-139 0-258 46l64 194q82-29 163-29 172 0 172 123 0 68-83 140-78 66-156 131-84 90-84 202 0 109 61.5 178.5T772 1055q23 37 23 88 0 80-55.5 124T602 1311q-119 0-180-94-53-80-53-207V0H123z"/><glyph unicode="à" horiz-adv-x="1099" d="M82 289q0 178 164 260 66 33 307 86 164 37 164 104 0 94-172 95-141 0-285-62l-84 186q193 88 404 89 174 0 274-78 109-86 109-256V186q0-39 14-129-262-80-436-80-180 0-303 66Q82 127 82 289zm262 1069q0 43 34 77.5t77 34.5q39 0 68-30l198-219-88-103-250 168q-39 27-39 72zm8-1051q0-125 191-125 88 0 178 29-4 27-4 39v252q-31-31-131-53-125-29-158-43-76-35-76-99z"/><glyph unicode="á" horiz-adv-x="1099" d="M82 289q0 178 164 260 66 33 307 86 164 37 164 104 0 94-172 95-141 0-285-62l-84 186q193 88 404 89 174 0 274-78 109-86 109-256V186q0-39 14-129-262-80-436-80-180 0-303 66Q82 127 82 289zm270 18q0-125 191-125 88 0 178 29-4 27-4 39v252q-31-31-131-53-125-29-158-43-76-35-76-99zm23 914l198 219q29 31 68 30 43 0 77-34.5t34-77.5q0-45-39-72l-250-168z"/><glyph unicode="â" horiz-adv-x="1099" d="M82 289q0 178 164 260 66 33 307 86 164 37 164 104 0 94-172 95-141 0-285-62l-84 186q193 88 404 89 174 0 274-78 109-86 109-256V186q0-39 14-129-262-80-436-80-180 0-303 66Q82 127 82 289zm157 919l236 224q53 51 98 51 39 0 92-51l236-224-86-90-246 160-244-160zm113-901q0-125 191-125 88 0 178 29-4 27-4 39v252q-31-31-131-53-125-29-158-43-76-35-76-99z"/><glyph unicode="ã" horiz-adv-x="1099" d="M82 289q0 178 164 260 66 33 307 86 164 37 164 104 0 94-172 95-141 0-285-62l-84 186q193 88 404 89 174 0 274-78 109-86 109-256V186q0-39 14-129-262-80-436-80-180 0-303 66Q82 127 82 289zm157 942q59 188 205 188 72 0 139-37 10-4 53-26 33-16 56-17 53 0 73 80l132-57q-59-188-205-188-70 0-137 36-8 2-54 27-33 16-57 16-53 0-74-79zm113-924q0-125 191-125 88 0 178 29-4 27-4 39v252q-31-31-131-53-125-29-158-43-76-35-76-99z"/><glyph unicode="ä" horiz-adv-x="1099" d="M82 289q0 178 164 260 66 33 307 86 164 37 164 104 0 94-172 95-141 0-285-62l-84 186q193 88 404 89 174 0 274-78 109-86 109-256V186q0-39 14-129-262-80-436-80-180 0-303 66Q82 127 82 289zm153 1005q0 49 36 82t91 33 91-33 36-82-35.5-81.5T362 1180q-55 0-91 32.5t-36 81.5zm117-987q0-125 191-125 88 0 178 29-4 27-4 39v252q-31-31-131-53-125-29-158-43-76-35-76-99zm293 987q0 49 36 82t91 33 91-33 36-82-36-81.5-91-32.5-91 32.5-36 81.5z"/><glyph unicode="å" horiz-adv-x="1099" d="M82 289q0 178 164 260 66 33 307 86 164 37 164 104 0 94-172 95-141 0-285-62l-84 186q193 88 404 89 174 0 274-78 109-86 109-256V186q0-39 14-129-262-80-436-80-180 0-303 66Q82 127 82 289zm270 18q0-125 191-125 88 0 178 29-4 27-4 39v252q-31-31-131-53-125-29-158-43-76-35-76-99zm25 991q0 80 55 136.5t135 56.5 136.5-56.5T760 1298t-56.5-136-136.5-56-135 56.5-55 135.5zm102 0q0-37 25.5-65.5T567 1204t63.5 28.5T657 1298t-26.5 66-63.5 29-62.5-29-25.5-66z"/><glyph unicode="æ" horiz-adv-x="1734" d="M82 293q0 178 164 260 63 31 307 82 164 37 164 104 0 94-172 95-141 0-285-62l-84 186q197 88 404 89 205 0 303-105 119 104 303 105 215 0 340-136.5T1651 557q0-55-15-135H975q25-231 274-232 143 0 260 54l78-191q-178-76-352-76-180 0-311 91-201-90-383-91-178 0-303 68Q82 129 82 293zm270 20q0-131 191-131 110 0 233 51-61 115-65 265-33-27-131-49-119-25-154-41-74-33-74-95zm623 301h430q-2 100-60.5 165T1188 844q-94 0-151.5-66.5T975 614z"/><glyph unicode="ç" horiz-adv-x="1034" d="M78 512q0 238 148.5 386.5T612 1047q172 0 338-72l-73-199q-145 57-250 58-131 0-209-91.5T340 518q0-139 85-233.5T649 190q92 0 230 52l71-193Q786-23 639-23l-14-51q10 2 28 2 59 0 99.5-35.5T793-203q0-154-181-153-88 0-172 49l35 94q80-45 127-45 66 0 66 51 0 39-50 39-31 0-129-25l48 177Q332 15 205 157T78 512z"/><glyph unicode="è" horiz-adv-x="1101" d="M78 510q0 233 121 379 129 158 354 158 217 0 344-138 121-133 121-352 0-31-14-135H342q25-231 274-232 141 0 261 54l77-191Q776-23 602-23q-236 0-380 146.5T78 510zm247 848q0 43 34 77.5t77 34.5q39 0 68-30l198-219-88-103-250 168q-39 27-39 72zm17-744h422q-2 100-53 164-57 66-156 66-94 0-151.5-66.5T342 614z"/><glyph unicode="é" horiz-adv-x="1101" d="M78 510q0 233 121 379 129 158 354 158 217 0 344-138 121-133 121-352 0-31-14-135H342q25-231 274-232 141 0 261 54l77-191Q776-23 602-23q-236 0-380 146.5T78 510zm264 104h422q-2 100-53 164-57 66-156 66-94 0-151.5-66.5T342 614zm66 607l198 219q29 31 68 30 43 0 77-34.5t34-77.5q0-45-39-72l-250-168z"/><glyph unicode="ê" horiz-adv-x="1101" d="M78 510q0 233 121 379 129 158 354 158 217 0 344-138 121-133 121-352 0-31-14-135H342q25-231 274-232 141 0 261 54l77-191Q776-23 602-23q-236 0-380 146.5T78 510zm153 698l236 224q53 51 98 51 39 0 92-51l236-224-86-90-246 160-244-160zm111-594h422q-2 100-53 164-57 66-156 66-94 0-151.5-66.5T342 614z"/><glyph unicode="ë" horiz-adv-x="1101" d="M78 510q0 233 121 379 129 158 354 158 217 0 344-138 121-133 121-352 0-31-14-135H342q25-231 274-232 141 0 261 54l77-191Q776-23 602-23q-236 0-380 146.5T78 510zm149 784q0 49 36 82t91 33 91-33 36-82-35.5-81.5T354 1180q-55 0-91 32.5t-36 81.5zm115-680h422q-2 100-53 164-57 66-156 66-94 0-151.5-66.5T342 614zm295 680q0 49 36 82t91 33 91-33 36-82-36-81.5-91-32.5-91 32.5-36 81.5z"/><glyph unicode="ì" horiz-adv-x="555" d="M59 1358q0 43 34 77.5t77 34.5q39 0 68-30l198-219-88-103-250 168q-39 27-39 72zM158 0v1024h245V0H158z"/><glyph unicode="í" horiz-adv-x="555" d="M123 1221l199 219q29 31 67 30 43 0 77-34.5t34-77.5q0-45-39-72l-250-168zM158 0v1024h245V0H158z"/><glyph unicode="î" horiz-adv-x="555" d="M-49 1208l235 224q53 51 99 51 39 0 92-51l235-224-86-90-245 160-244-160zM158 0v1024h245V0H158z"/><glyph unicode="ï" horiz-adv-x="555" d="M-51 1294q0 49 35.5 82t91.5 33q55 0 91-33t36-82-36-81.5-91-32.5-91 32.5-36 81.5zM158 0v1024h245V0H158zm200 1294q0 49 36 82t91 33 91-33 36-82-35.5-81.5T485 1180q-55 0-91 32.5t-36 81.5z"/><glyph unicode="ð" horiz-adv-x="1185" d="M78 512q0 217 131 362 135 154 348 154 125 0 201-59-61 98-221 225l-230-104-61 124 170 82q-63 43-140 86l113 166q121-68 238-151l241 114 60-127-180-86q360-322 360-768 0-242-135-393Q830-23 592-23q-231 0-375 154Q78 278 78 512zm266-2q0-133 57-223 68-106 193-107 125 0 190 107 56 90 56 223t-56 225q-66 109-190 109-127 0-193-109-57-92-57-225z"/><glyph unicode="ñ" horiz-adv-x="1157" d="M123 944q287 102 465 103 446 0 446-365V0H788v643q0 188-202 188-86 0-207-45 4-29 4-43V0H137v801q0 45-14 143zm129 287q59 188 205 188 72 0 139-37 10-4 53-26 33-16 56-17 53 0 73 80l132-57q-59-188-205-188-70 0-137 36-8 2-54 27-33 16-57 16-53 0-74-79z"/><glyph unicode="ò" horiz-adv-x="1183" d="M78 512q0 233 141 384t373 151q231 0 372.5-151T1106 512 964.5 128 592-23 217 131Q78 278 78 512zm272-2q0-135 53-219 63-102 189-103 125 0 188 103 54 84 54 219 0 133-54 219-63 104-188 105-125 0-189-103-53-86-53-221zm6 848q0 43 34 77.5t77 34.5q39 0 68-30l198-219-88-103-250 168q-39 27-39 72z"/><glyph unicode="ó" horiz-adv-x="1183" d="M78 512q0 233 141 384t373 151q231 0 372.5-151T1106 512 964.5 128 592-23 217 131Q78 278 78 512zm272-2q0-135 53-219 63-102 189-103 125 0 188 103 54 84 54 219 0 133-54 219-63 104-188 105-125 0-189-103-53-86-53-221zm101 711l198 219q29 31 68 30 43 0 77-34.5t34-77.5q0-45-39-72l-250-168z"/><glyph unicode="ô" horiz-adv-x="1183" d="M78 512q0 233 141 384t373 151q231 0 372.5-151T1106 512 964.5 128 592-23 217 131Q78 278 78 512zm178 696l236 224q53 51 98 51 39 0 92-51l236-224-86-90-246 160-244-160zm94-698q0-135 53-219 63-102 189-103 125 0 188 103 54 84 54 219 0 133-54 219-63 104-188 105-125 0-189-103-53-86-53-221z"/><glyph unicode="õ" horiz-adv-x="1183" d="M78 512q0 233 141 384t373 151q231 0 372.5-151T1106 512 964.5 128 592-23 217 131Q78 278 78 512zm176 719q59 188 205 188 72 0 139-37 10-4 53-26 33-16 56-17 53 0 73 80l132-57q-59-188-205-188-70 0-137 36-8 2-54 27-33 16-57 16-53 0-74-79zm96-721q0-135 53-219 63-102 189-103 125 0 188 103 54 84 54 219 0 133-54 219-63 104-188 105-125 0-189-103-53-86-53-221z"/><glyph unicode="ö" horiz-adv-x="1183" d="M78 512q0 233 141 384t373 151q231 0 372.5-151T1106 512 964.5 128 592-23 217 131Q78 278 78 512zm170 782q0 49 36 82t91 33 91-33 36-82-35.5-81.5T375 1180q-55 0-91 32.5t-36 81.5zm102-784q0-135 53-219 63-102 189-103 125 0 188 103 54 84 54 219 0 133-54 219-63 104-188 105-125 0-189-103-53-86-53-221zm308 784q0 49 36 82t91 33 91-33 36-82-36-81.5-91-32.5-91 32.5-36 81.5z"/><glyph unicode="÷" horiz-adv-x="1204" d="M90 414v202h1022V414H90zm356-291q0 61 44.5 102T604 266q70 0 114-41t44-102-44-102-114-41-114 40.5T446 123zm0 778q0 61 44.5 102t113.5 41q70 0 114-41t44-102-44-102-114-41-114 41-44 102z"/><glyph unicode="ø" horiz-adv-x="1183" d="M78 512q0 233 141 384t373 151q182 0 315-99l80 88 82-73-80-97q117-139 117-354 0-233-139-381Q824-23 592-23q-182 0-313 99l-86-94-87 77 89 97Q78 303 78 512zm266-2q0-86 27-158l383 426q-63 66-160 66-127 0-193-109-57-92-57-225zm88-262q61-68 162-68 125 0 190 107 56 88 56 223 0 86-25 162z"/><glyph unicode="ù" horiz-adv-x="1157" d="M123 342v682h246V381q0-188 202-188 86 0 207 45-4 31-4 43v743h246V223q0-45 14-143Q747-22 569-23q-446 0-446 365zm229 1016q0 43 34 77.5t77 34.5q39 0 68-30l198-219-88-103-250 168q-39 27-39 72z"/><glyph unicode="ú" horiz-adv-x="1157" d="M123 342v682h246V381q0-188 202-188 86 0 207 45-4 31-4 43v743h246V223q0-45 14-143Q747-22 569-23q-446 0-446 365zm301 879l198 219q29 31 68 30 43 0 77-34.5t34-77.5q0-45-39-72l-250-168z"/><glyph unicode="û" horiz-adv-x="1157" d="M123 342v682h246V381q0-188 202-188 86 0 207 45-4 31-4 43v743h246V223q0-45 14-143Q747-22 569-23q-446 0-446 365zm125 866l236 224q53 51 98 51 39 0 92-51l236-224-86-90-246 160-244-160z"/><glyph unicode="ü" horiz-adv-x="1157" d="M123 342v682h246V381q0-188 202-188 86 0 207 45-4 31-4 43v743h246V223q0-45 14-143Q747-22 569-23q-446 0-446 365zm120 952q0 49 36 82t91 33 91-33 36-82-35.5-81.5T370 1180q-55 0-91 32.5t-36 81.5zm410 0q0 49 36 82t91 33 91-33 36-82-36-81.5-91-32.5-91 32.5-36 81.5z"/><glyph unicode="ý" horiz-adv-x="1105" d="M8 1024h277l293-778 260 778h260L709-61Q576-432 311-492L182-313q227 61 324 301-70 16-115 123zm422 197l198 219q29 31 68 30 43 0 77-34.5t34-77.5q0-45-39-72l-250-168z"/><glyph unicode="þ" horiz-adv-x="1155" d="M135-461v1964h246v-469q80 12 143 13 254 0 403.5-147.5T1077 514q0-233-146.5-385T573-23q-100 0-192 35v-473H135zm246 680q63-29 137-29 131 0 211 99 74 90 74 225 0 141-64 225-72 94-209 95-78 0-149-27V219z"/><glyph unicode="ÿ" horiz-adv-x="1105" d="M8 1024h277l293-778 260 778h260L709-61Q576-432 311-492L182-313q227 61 324 301-70 16-115 123zm233 270q0 49 36 82t91 33 91-33 36-82-35.5-81.5T368 1180q-55 0-91 32.5t-36 81.5zm410 0q0 49 36 82t91 33 91-33 36-82-36-81.5-91-32.5-91 32.5-36 81.5z"/><glyph unicode="Œ" horiz-adv-x="1810" d="M96 698q0 324 168 516 180 209 508 209 49 0 125-11t121-11h692v-221h-561V836h469V623h-469V221h580V0H995q-20 0-97-11.5T772-23q-319 0-504 209Q96 383 96 698zm275 0q0-213 92-346 106-154 309-153 33 0 121 18v969q-68 14-129 14-201 0-303-151-90-131-90-351z"/><glyph unicode="œ" horiz-adv-x="1869" d="M78 512q0 233 141 384t373 151q240 0 377-168 127 168 352 168 215 0 340-136.5T1786 557q0-55-14-135h-662q25-231 274-232 141 0 261 54l77-191q-178-76-352-76-254 0-395 170Q834-23 592-23q-231 0-375 154Q78 278 78 512zm266-2q0-133 57-223 66-106 193-107 125 0 190 107 56 88 56 223 0 133-56 225-66 109-190 109-127 0-193-109-57-92-57-225zm766 104h422q-2 100-53 164-57 66-156 66-94 0-151.5-66.5T1110 614z"/><glyph unicode="Ÿ" horiz-adv-x="1351" d="M14 1401h308l303-498q33-55 51-98 20 47 51 96l311 500h299L807 596V0H551v590q-18 18-49 57zm320 247q0 49 36 82t91 33 91-33 36-82-35.5-81.5T461 1534q-55 0-91 32.5t-36 81.5zm410 0q0 49 36 82t91 33 91-33 36-82-36-81.5-91-32.5-91 32.5-36 81.5z"/><glyph unicode="ˆ" horiz-adv-x="512" d="M-74 1208l236 224q53 51 98 51 39 0 92-51l236-224-86-90-246 160-244-160z"/><glyph unicode="˜" horiz-adv-x="512" d="M-80 1231q59 188 205 188 72 0 139-37 10-4 53-26 33-16 56-17 53 0 73 80l132-57q-59-188-205-188-70 0-137 36-8 2-54 27-33 16-57 16-53 0-74-79z"/><glyph horiz-adv-x="940"/><glyph horiz-adv-x="1880"/><glyph horiz-adv-x="940"/><glyph horiz-adv-x="1880"/><glyph horiz-adv-x="626"/><glyph horiz-adv-x="470"/><glyph horiz-adv-x="313"/><glyph horiz-adv-x="313"/><glyph horiz-adv-x="235"/><glyph horiz-adv-x="376"/><glyph horiz-adv-x="104"/><glyph unicode="‐" horiz-adv-x="679" d="M55 430v219h578V430H55z"/><glyph unicode="‑" horiz-adv-x="679" d="M55 430v219h578V430H55z"/><glyph unicode="‒" horiz-adv-x="679" d="M55 430v219h578V430H55z"/><glyph unicode="–" horiz-adv-x="1024" d="M0 481v191h1024V481H0z"/><glyph unicode="—" horiz-adv-x="2048" d="M0 481v191h2048V481H0z"/><glyph unicode="‘" horiz-adv-x="512" d="M121 1081q0 27 6 39l152 316 114-35-45-344q-6-39-36.5-64.5T242 967q-49 0-85 32.5t-36 81.5z"/><glyph unicode="’" horiz-adv-x="512" d="M119 987l45 344q6 39 36.5 65.5T270 1423q49 0 85-33.5t36-82.5q0-27-6-39L233 952z"/><glyph unicode="‚" horiz-adv-x="512" d="M119-195l45 345q6 39 36.5 65.5T270 242q49 0 85-34t36-83q0-27-6-39L233-229z"/><glyph unicode="“" horiz-adv-x="1024" d="M182 1081q0 27 6 39l152 316 115-35-45-344q-6-39-37-65.5T303 965q-49 0-85 33.5t-36 82.5zm389 0q0 27 7 39l151 316 115-35-45-344q-6-39-37-65.5T692 965q-49 0-85 33.5t-36 82.5z"/><glyph unicode="”" horiz-adv-x="1024" d="M180 999l45 344q6 39 37 66t70 27q49 0 85-34t36-83q0-27-7-39L295 965zm389 0l45 344q6 39 37 66t70 27q49 0 85-34t36-83q0-27-6-39L684 965z"/><glyph unicode="„" horiz-adv-x="1024" d="M180-195l45 345q6 39 37 65.5t70 26.5q49 0 85-34t36-83q0-27-7-39L295-229zm389 0l45 345q6 39 37 65.5t70 26.5q49 0 85-34t36-83q0-27-6-39L684-229z"/><glyph unicode="•" horiz-adv-x="1009" d="M236 735q0 104 75.5 172T504 975t193.5-68T774 735t-76.5-172.5T504 494t-192.5 68.5T236 735z"/><glyph unicode="…" horiz-adv-x="2048" d="M182 123q0 61 44 102t114 41 114-41 44-102-44-102-114-41-114 40.5T182 123zm680 0q0 61 44 102t114 41 114-41 44-102-44-102-114-41-114 40.5T862 123zm688 0q0 61 44 102t114 41 114-41 44-102-44-102-114-41-114 40.5-44 102.5z"/><glyph horiz-adv-x="376"/><glyph unicode="‹" horiz-adv-x="675" d="M47 524l326 410h245L324 524l292-411H373z"/><glyph unicode="›" horiz-adv-x="675" d="M47 113l295 411L47 934h246l325-410-325-411H47z"/><glyph horiz-adv-x="470"/><glyph unicode="™" horiz-adv-x="2048" d="M176 1223v174h715v-174H627V557H424v666H176zm797-666v840h268l199-383 196 383h269V557h-201v569l-211-401q-113 0-168 109l-151 292V557H973z"/><glyph unicode="◼" horiz-adv-x="1024" d="M0 0v1024h1024V0H0z"/></font>
</defs>
</svg>
