<svg xmlns="http://www.w3.org/2000/svg" width="687.82" height="70.886" viewBox="0 0 687.82 70.886"><g><path fill="#fff" d="M309.435 51.757c-.172 9.8-7.22 19.13-20.927 19.13-11.562 0-21.232-8.515-21.762-19.45 2.018.003 10.723 0 12.28 0 .265 5.425 4.074 8.687 10.702 8.395 5.916-.27 8.67-5.328 8.77-9.193.115-4.67-.715-8.856-13.807-13.43-11.185-3.905-16.57-8.653-16.57-19.505 0-10.893 10.153-17.556 18.963-17.7 14.632-.237 21.404 9.19 21.192 17.063h-12.03c-.364-4.052-4.37-6.91-8.642-6.91-4.365 0-8.653 2.906-8.658 8.6-.005 6.172 3.74 8.395 12.743 11.608 15.726 5.078 17.962 12.47 17.747 21.39zM177.564 51.757c-.168 9.8-7.217 19.13-20.924 19.13-11.562 0-21.237-8.515-21.763-19.45 2.02.003 10.722 0 12.28 0 .266 5.425 4.074 8.687 10.703 8.395 5.916-.27 8.668-5.328 8.766-9.193.12-4.67-.712-8.856-13.803-13.43-11.188-3.905-16.574-8.653-16.574-19.505 0-10.894 10.155-17.556 18.966-17.7 14.63-.237 21.402 9.19 21.193 17.063h-12.036c-.364-4.052-4.367-6.91-8.64-6.91-4.364 0-8.653 2.906-8.657 8.6-.006 6.172 3.742 8.395 12.74 11.606 15.73 5.08 17.964 12.47 17.747 21.393zM681.15 7.145l.622.007c.73.005 1.306-.242 1.306-.826.008-.52-.363-.866-1.2-.874-.335-.003-.573.04-.722.072l-.006 1.62zm-.07 3.18l-1.305-.008.043-5.638c.522-.105 1.25-.204 2.176-.196 1.082.01 1.547.192 1.975.467.303.25.55.706.542 1.212 0 .667-.5 1.143-1.186 1.347v.064c.545.178.86.635 1.02 1.394.174.868.274 1.212.406 1.382l-1.413-.008c-.18-.214-.286-.69-.44-1.358-.102-.617-.446-.894-1.17-.903h-.625l-.025 2.246zm.928-7.457c-2.492-.023-4.37 1.995-4.392 4.488-.02 2.53 1.828 4.548 4.392 4.572 2.492.048 4.342-1.973 4.36-4.503.02-2.498-1.8-4.54-4.325-4.558h-.035zm.086-1.154c3.243.03 5.75 2.57 5.728 5.724-.023 3.217-2.57 5.686-5.857 5.662-3.246-.03-5.82-2.53-5.797-5.747.03-3.158 2.643-5.66 5.89-5.64h.036zM484.3 1.93h-10.464v66.663h36.582v-9.57h-25.633l-.484-.502zM421.175 1.93H410.71v66.663h36.58v-9.57l-25.63-.016-.485-.486zM217.56 12.007l-.483-.486-17.794.02V1.93h47.01v9.61l-17.77-.02-.488.487-.008 56.586-10.466-.01zM575.99 1.934h-36.54V68.59h36.54v-9.57h-25.615l-.48-.48-.003-18.73.483-.477H571.7V29.62h-21.325l-.483-.475V12.013l.483-.48h25.615zM376.453 1.934h-36.54V68.59h36.54v-9.57h-25.615l-.483-.48V39.81l.48-.477h21.33V29.62h-21.33l-.48-.477v-17.13l.48-.48h25.618zM107.902 1.953H71.365v66.654h36.537v-9.57H82.29l-.48-.476-.003-18.728.482-.48h21.327v-9.71H82.29l-.483-.48V12.036l.482-.48H107.9zM625.71 1.947c-4.054 0-14.165 0-16.097.376v66.245h10.48c0-.926-.022-28.275-.022-28.275l.483-.46H625.658c4.74 0 6.444 3.112 8.552 7.73 2.865 6.302 4.164 11.886 6.86 21.01l11.4-.005c-1.072-3.488-4.937-15.178-8.31-24.208-1.99-5.333-4.54-8.263-7.58-9.01v-.3c5.498-2.164 11.507-6.002 11.77-15.8.144-4.98-.924-9.408-4.1-12.474-3.947-3.743-10.213-4.83-18.54-4.83m-5.15 27.693l-.487-.49V12.033l.482-.487 6.693-.01c7.75 0 10.45 4.927 10.45 8.84 0 7.77-5.114 9.36-10.42 9.264h-6.717zM16.856 1.945c-.216 0-.43.004-.655.004-3.99.033-14.302 0-16.2.344v66.178c2.076.373 12.36.464 16.713.464 10.684 0 14.623-1.197 18.867-4.976 3.412-3.082 5.1-7.754 5.1-13.52 0-9.887-4.6-14.38-10.502-16.57v-.303c4.484-2.363 7.916-6.457 7.916-14.84 0-5.29-1.76-9.114-4.902-11.93-3.92-3.506-9.218-4.85-16.336-4.85m-5.912 27.678l-.483-.486-.008-17.114.483-.485c.664 0 1.076.004 1.69.004 1.425 0 2.846.01 4.813.01 7.855 0 10.293 3.935 10.293 8.555 0 5.693-2.286 9.535-9.81 9.535-.176 0-6.976-.02-6.976-.02zm2.83 29.406c-1.507 0-2.4 0-2.84 0l-.482-.5V39.83l.483-.486 6.477-.02c7.34 0 12.357 3.562 12.357 10.295-.005 5.295-2.423 9.412-11.774 9.445-1.62 0-3.033-.033-4.22-.033"/></g></svg>