<svg xmlns="http://www.w3.org/2000/svg" viewBox="0 0 511.7 85.3" enable-background="new 0 0 511.7 85.3"><path fill="#fff" d="M46.9 50c-.9.1-1.2.3-1.2 1v15.7c-5.6 2.6-12.9 3.5-18.9 3.5C6.9 70.3 0 58.5 0 42.8c0-15.6 9-27.2 27.4-27.2 5.3 0 12.1 1.3 16.5 4.2v13.8l-8.1-.6-1.1-6.6c-.2-1-.5-1.3-1.2-1.5-1.8-.5-4.5-.9-6.7-.9-9.4 0-15 7.2-15 18.6 0 12.1 5.1 19.2 15.6 19.2 2 0 4.4-.2 6.1-.5.8-.1 1.2-.4 1.2-1.3v-9.6h-8.1l1-6.6H50v5.8l-3.1.4zM59.4 69.4v-5.7l5.3-.5c1-.1 1.2-.4 1.2-1.5V24.3c0-1.1-.1-1.4-1.2-1.5l-5.3-.5v-5.8H84v5.8l-5.7.7c-1.1.1-1.2.3-1.2 1.4v37.3c0 1.2.1 1.3 1.2 1.5l5.6.6v5.7H59.4zM164.2 69.4v-5.7l4.6-.5c1-.1 1.2-.4 1.2-1.5V24.3c0-1.1-.1-1.4-1.2-1.5l-4.6-.5v-5.8H203v14.8l-8-.4-1-5.6c-.1-.7-.4-.9-1.2-.9h-11.5v14.4h17.1v8.1h-17.1v14.7h13.1c.8 0 1-.1 1.2-.8l1.2-6.4h8v15h-40.6zM218.8 43.5h19.8v9.3h-19.8zM280.5 69.4v-5.7l6-.7-2.6-7.6h-18.1l-2.6 7.6 5.8.7v5.7h-20.4v-5.7l3.2-.8c.9-.2 1.5-.5 1.8-1.4l16-45h12.9l15.9 45.1c.3.9.9 1 1.8 1.2l3.4.8v5.7h-23.1zm-5.3-41.7h-.4L268 47.6h13.7l-6.5-19.9zM313.4 43.5h19.8v9.3h-19.8zM346.3 69.4v-5.8l4.6-.5c1-.1 1.2-.4 1.2-1.5V24.3c0-1.1-.1-1.3-1.2-1.5l-4.6-.5v-5.8H370c18.3 0 26.2 9.9 26.2 25.6 0 16.2-8.5 27.2-27.5 27.2h-22.4zm21.2-7.9c12.9 0 17.2-7.6 17.2-18.7 0-13.4-5.1-18.4-16.7-18.4h-4.6v37.1h4.1zM435.4 69.4v-5.7l6-.7-2.6-7.6h-18.1l-2.6 7.6 5.8.7v5.7h-20.4v-5.7l3.2-.8c.9-.2 1.5-.5 1.8-1.4l16-45h12.9l15.9 45.1c.3.9.9 1 1.8 1.2l3.4.8v5.7h-23.1zm-5.3-41.7h-.4L423 47.6h13.7l-6.6-19.9zM473.8 69.4v-5.8l7.3-.5c1-.1 1.2-.4 1.2-1.5v-12l-14.5-25.4c-.4-.7-.9-.9-1.8-1.2l-3.3-.8.7-5.7h21.9v5.7l-5.7.7 8.8 17.2h.6l8.8-17.2-5.6-.7.7-5.7h18.6v5.7l-3.1.8c-.8.2-1.5.6-1.8 1.4l-13.2 25.1v12.1c0 1 .1 1.3 1.2 1.4l7.7.6v5.8h-28.5z"/><path fill="#BE1E2D" d="M121.9 14.1L100.2 0 80 7.1l-6.4 24 19.8 31.3 31.5 22.9L158.2 57l16.7-33.5-12.7-17.9-20.1-2.1z"/></svg>