<svg xmlns="http://www.w3.org/2000/svg" viewBox="0 0 511.7 122.6" enable-background="new 0 0 511.7 122.6"><path fill="#fff" d="M46.9 87.4c-.9.1-1.2.3-1.2 1v15.7c-5.6 2.6-12.9 3.5-18.9 3.5C6.9 107.6 0 95.8 0 80.1c0-15.6 9-27.2 27.4-27.2 5.3 0 12.1 1.3 16.5 4.2v13.8l-8.1-.6-1.1-6.6c-.2-1-.5-1.3-1.2-1.5-1.8-.5-4.5-.9-6.7-.9-9.4 0-15 7.2-15 18.6 0 12.1 5.1 19.2 15.6 19.2 2 0 4.4-.2 6.1-.5.8-.1 1.2-.4 1.2-1.3v-9.6h-8.1l1-6.6H50v5.8l-3.1.5zM59.4 106.7V101l5.3-.5c1-.1 1.2-.4 1.2-1.5V61.6c0-1.1-.1-1.4-1.2-1.5l-5.3-.5v-5.8H84v5.8l-5.6.6c-1.1.1-1.2.3-1.2 1.4V99c0 1.2.1 1.3 1.2 1.5l5.6.5v5.7H59.4zM164.2 106.7V101l4.6-.5c1-.1 1.2-.4 1.2-1.5V61.6c0-1.1-.1-1.4-1.2-1.5l-4.6-.5v-5.8H203v14.8l-8-.4-1-5.6c-.1-.7-.4-.9-1.2-.9h-11.5v14.4h17.1v8.1h-17.1v14.7h13.1c.8 0 1-.1 1.2-.8l1.2-6.4h8v15h-40.6zM218.8 80.9h19.8v9.3h-19.8zM280.5 106.7V101l6-.7-2.6-7.6h-18.1l-2.6 7.6 5.8.7v5.7h-20.4V101l3.2-.8c.9-.2 1.5-.5 1.8-1.4l16-45h12.9l16 45.2c.3.9.9 1 1.8 1.2l3.4.8v5.7h-23.2zM275.2 65h-.4L268 84.9h13.7L275.2 65zM313.4 80.9h19.8v9.3h-19.8zM346.3 106.7v-5.8l4.6-.5c1-.1 1.2-.4 1.2-1.5V61.6c0-1.1-.1-1.3-1.2-1.5l-4.6-.5v-5.8H370c18.3 0 26.2 9.9 26.2 25.6 0 16.2-8.5 27.2-27.5 27.2h-22.4zm21.2-7.9c12.9 0 17.2-7.6 17.2-18.7 0-13.4-5.1-18.4-16.7-18.4h-4.6v37.1h4.1zM435.4 106.7V101l6-.7-2.6-7.6h-18.1l-2.6 7.6 5.8.7v5.7h-20.4V101l3.2-.8c.9-.2 1.5-.5 1.8-1.4l16-45h12.9l16 45.2c.3.9.9 1 1.8 1.2l3.4.8v5.7h-23.2zM430.1 65h-.4L423 84.9h13.7L430.1 65zM473.8 106.7v-5.8l7.3-.5c1-.1 1.2-.4 1.2-1.5V87l-14.5-25.4c-.4-.7-.9-.9-1.8-1.2l-3.3-.8.7-5.7h21.9v5.7l-5.7.7 8.8 17.2h.6l8.8-17.2-5.6-.7.7-5.7h18.6v5.7l-3.1.8c-.8.2-1.5.6-1.8 1.4l-13.2 25.1V99c0 1 .1 1.3 1.2 1.4l7.7.6v5.8h-28.5z"/><path fill="#BE1E2D" d="M121.9 51.4l-21.7-14.1L80 44.4l-6.4 24.1 19.8 31.2 31.5 22.9 33.3-28.3 16.7-33.5-12.7-17.9-20.1-2.1z"/><path fill="#fff" d="M251.2 14.9c0 2.8-2.1 5.5-6 5.5-3.3 0-6.1-2.5-6.3-5.6.6 0 3.1 0 3.5 0 .1 1.6 1.2 2.5 3.1 2.4 1.7-.1 2.5-1.5 2.5-2.6 0-1.3-.2-2.6-4-3.9-3.2-1.1-4.8-2.5-4.8-5.6 0-3.1 2.9-5.1 5.5-5.1 4.2-.1 6.2 2.6 6.1 4.9h-3.5c-.1-1.2-1.3-2-2.5-2-1.3 0-2.5.8-2.5 2.5 0 1.8 1.1 2.4 3.7 3.3 4.6 1.5 5.2 3.6 5.2 6.2zM213.2 14.9c0 2.8-2.1 5.5-6 5.5-3.3 0-6.1-2.5-6.3-5.6.6 0 3.1 0 3.5 0 .1 1.6 1.2 2.5 3.1 2.4 1.7-.1 2.5-1.5 2.5-2.6 0-1.3-.2-2.6-4-3.9-3.2-1.1-4.8-2.5-4.8-5.6 0-3.1 2.9-5.1 5.5-5.1 4.2-.1 6.2 2.6 6.1 4.9h-3.5c-.1-1.2-1.3-2-2.5-2-1.3 0-2.5.8-2.5 2.5 0 1.8 1.1 2.4 3.7 3.3 4.6 1.5 5.3 3.6 5.2 6.2zM358.2 2.1h.2c.2 0 .4-.1.4-.2 0-.2-.1-.2-.3-.3-.1 0-.2 0-.2 0l-.1.5zm0 .9h-.4V1.4c.2 0 .4-.1.6-.1.3 0 .4.1.6.1.1.1.2.2.2.3 0 .2-.1.3-.3.4.2.1.2.2.3.4 0 .3.1.3.1.4h-.4c-.1-.1-.1-.2-.1-.4s-.1-.3-.3-.3h-.2l-.1.8zm.3-2.2c-.7 0-1.3.6-1.3 1.3 0 .7.5 1.3 1.3 1.3.7 0 1.3-.6 1.3-1.3-.1-.7-.6-1.3-1.3-1.3zm0-.3c.9 0 1.7.7 1.6 1.6 0 .9-.7 1.6-1.7 1.6-.9 0-1.7-.7-1.7-1.7.1-.8.9-1.5 1.8-1.5zM301.5.6h-3v19.2h10.6V17h-7.4l-.2-.1zM283.4.6h-3.1v19.2h10.6V17h-7.4l-.1-.1zM224.7 3.5l-.1-.2h-5.1V.6H233v2.7h-5.1l-.2.2v16.3h-3zM328 .6h-10.6v19.2H328V17h-7.4l-.2-.1v-5.4l.2-.2h6.1V8.5h-6.1l-.2-.1V3.5l.2-.2h7.4zM270.5.6H260v19.2h10.5V17h-7.4l-.1-.1v-5.4l.1-.2h6.1V8.5h-6.1l-.1-.1V3.5l.1-.2h7.4zM193.1.6h-10.5v19.2h10.5V17h-7.3l-.2-.1v-5.4l.2-.2h6.1V8.5h-6.1l-.2-.1V3.5l.2-.2h7.3zM342.3.6c-1.2 0-4.1 0-4.6.1v19.1h3c0-.3 0-8.1 0-8.1l.1-.1h1.5c1.4 0 1.9.9 2.5 2.2.8 1.8 1.2 3.4 2 6.1h3.3c-.3-1-1.4-4.4-2.4-7-.6-1.5-1.3-2.4-2.2-2.6v-.1c1.6-.6 3.3-1.7 3.4-4.6 0-1.4-.3-2.7-1.2-3.6-1.2-1.1-3-1.4-5.4-1.4m-1.5 7.9l-.1-.1V3.5l.1-.1h1.9c2.2 0 3 1.4 3 2.5 0 2.2-1.5 2.7-3 2.7h-1.9zM166.9.6c-.1 0-.1 0-.2 0-1.1 0-4.1 0-4.7.1v19.1c.6.1 3.6.1 4.8.1 3.1 0 4.2-.3 5.4-1.4 1-.9 1.5-2.2 1.5-3.9 0-2.8-1.3-4.1-3-4.8v-.1C172 9 173 7.8 173 5.4c0-1.5-.5-2.6-1.4-3.4C170.5.9 169 .6 166.9.6m-1.7 7.9l-.1-.1V3.5l.1-.1c.2 0 .3 0 .5 0 .4 0 .8 0 1.4 0 2.3 0 3 1.1 3 2.5 0 1.6-.7 2.7-2.8 2.7-.1-.1-2.1-.1-2.1-.1zm.8 8.5c-.4 0-.7 0-.8 0l-.1-.1v-5.4l.1-.1h1.9c2.1 0 3.6 1 3.6 3 0 1.5-.7 2.7-3.4 2.7-.5-.1-.9-.1-1.3-.1"/></svg>